<svg width="1457" height="87" viewBox="0 0 1457 87" fill="none" xmlns="http://www.w3.org/2000/svg">
<path fill-rule="evenodd" clip-rule="evenodd" d="M3.05438 0.999891H1455.09V85.9999H3.05438V0.999891Z" fill="#F3F6F9"/>
<path fill-rule="evenodd" clip-rule="evenodd" d="M3.05432 58.9995C3.05432 58.9995 3.05432 50.9999 19.8087 39.9998C19.8087 39.9998 33.2113 33.9996 41.0296 39.9998C41.0296 39.9998 47.7316 47.9997 46.6153 58.9995C46.6153 58.9995 56.6677 54.9997 64.486 49.9998C64.486 49.9998 75.656 52.9999 91.2927 46.9997L111.397 41.9998C111.397 41.9998 111.397 56.9997 127.035 50.9999C127.035 50.9999 149.374 53.9996 162.778 56.9997C162.778 56.9997 165.011 29.9996 178.415 24.9999C178.415 24.9999 186.233 15.9996 192.935 8.99963C192.935 8.99963 195.169 21.9997 202.987 31.9997C202.987 31.9997 214.157 27.9998 226.444 23.9997C226.444 23.9997 226.444 31.9997 240.964 41.9998C240.964 41.9998 232.028 48.9996 262.186 33.9996C262.186 33.9996 261.069 56.9997 277.823 51.9998C277.823 51.9998 293.46 42.9997 301.279 34.9999C301.279 34.9999 301.279 31.9997 314.682 37.9998C314.682 37.9998 324.734 50.9999 347.073 42.9997C347.073 42.9997 368.295 34.9999 381.699 36.9998C381.699 36.9998 376.114 52.9999 391.752 60.9998C391.752 60.9998 404.597 56.9997 411.856 47.9997C411.856 47.9997 434.195 37.9998 448.715 28.9997C448.715 28.9997 459.885 34.9999 475.522 48.9996C475.522 48.9996 483.34 51.9998 510.149 46.9997C510.149 46.9997 523.551 44.9995 549.242 50.9999C549.242 50.9999 560.41 43.9996 569.346 35.9998C569.346 35.9998 589.451 48.9996 601.737 57.9996C601.737 57.9996 608.439 40.9996 631.896 39.9998C631.896 39.9998 646.416 52.9999 659.819 39.9998C659.819 39.9998 664.287 29.9996 689.977 41.9998C689.977 41.9998 714.55 52.9999 721.25 65.9998C721.25 65.9998 745.823 55.9996 754.759 63.9998C754.759 63.9998 765.929 71.9997 783.8 61.9998C783.8 61.9998 791.618 58.9995 811.724 55.9996C811.724 55.9996 817.308 62.9997 838.531 51.9998C838.531 51.9998 846.349 48.9996 874.272 43.9996C874.272 43.9996 891.026 62.9997 917.833 26.9997C917.833 26.9997 953.576 6.99982 962.512 25.9998C962.512 25.9998 970.33 65.9998 989.318 53.9996C989.318 53.9996 1010.54 24.3331 1019.48 43.9996C1020.11 45.3948 1037.81 60.258 1039.58 60.9998C1056.33 67.9996 1059.69 61.9998 1074.21 53.9996C1074.21 53.9996 1069.74 51.9998 1090.96 56.9997C1090.96 56.9997 1108.83 61.9998 1124.47 53.9996C1124.47 53.9996 1151.27 52.9999 1159.09 27.9998C1159.09 27.9998 1165.8 39.9998 1179.2 49.9998C1179.2 49.9998 1194.84 45.9998 1206.01 38.9999C1206.01 38.9999 1219.41 42.9997 1239.51 35.9998C1239.51 35.9998 1258.5 20.9998 1269.67 33.9996C1269.67 33.9996 1283.08 49.9998 1303.18 27.9998C1303.18 27.9998 1317.7 38.9999 1329.99 27.9998C1329.99 27.9998 1345.62 16.9995 1351.21 35.9998C1351.21 35.9998 1366.85 37.9998 1380.25 19.9996C1380.25 19.9996 1399.24 16.9995 1407.06 23.9997C1407.06 23.9997 1447.27 23.9997 1455.08 36.9998V85.9997H3.05432C3.05432 85.9997 3.05432 73.9996 3.05432 58.9995Z" fill="#808080"/>
<path opacity="0.89" fill-rule="evenodd" clip-rule="evenodd" d="M3.05432 0.999891H1067.5V85.9999H3.05432V0.999891Z" fill="#F3F6F9"/>
</svg>
