<svg width="21" height="20" viewBox="0 0 21 20" fill="none" xmlns="http://www.w3.org/2000/svg">
<g clip-path="url(#clip0_508_9544)">
<path d="M12.8263 3.75C13.1604 3.75 13.4807 3.8817 13.7169 4.11612C13.9531 4.35054 14.0858 4.66848 14.0858 5V15C14.0858 15.3315 13.9531 15.6495 13.7169 15.8839C13.4807 16.1183 13.1604 16.25 12.8263 16.25H7.78847C7.45444 16.25 7.13409 16.1183 6.89789 15.8839C6.66169 15.6495 6.529 15.3315 6.529 15V5C6.529 4.66848 6.66169 4.35054 6.89789 4.11612C7.13409 3.8817 7.45444 3.75 7.78847 3.75H12.8263ZM7.78847 2.5C7.12041 2.5 6.4797 2.76339 6.00731 3.23223C5.53492 3.70107 5.26953 4.33696 5.26953 5V15C5.26953 15.663 5.53492 16.2989 6.00731 16.7678C6.4797 17.2366 7.12041 17.5 7.78847 17.5H12.8263C13.4944 17.5 14.1351 17.2366 14.6075 16.7678C15.0799 16.2989 15.3453 15.663 15.3453 15V5C15.3453 4.33696 15.0799 3.70107 14.6075 3.23223C14.1351 2.76339 13.4944 2.5 12.8263 2.5H7.78847Z" fill="#313A41"/>
<path d="M10.3062 15.0002C10.6403 15.0002 10.9606 14.8685 11.1968 14.6341C11.433 14.3997 11.5657 14.0817 11.5657 13.7502C11.5657 13.4187 11.433 13.1007 11.1968 12.8663C10.9606 12.6319 10.6403 12.5002 10.3062 12.5002C9.97221 12.5002 9.65185 12.6319 9.41566 12.8663C9.17946 13.1007 9.04677 13.4187 9.04677 13.7502C9.04677 14.0817 9.17946 14.3997 9.41566 14.6341C9.65185 14.8685 9.97221 15.0002 10.3062 15.0002ZM2.24437 5.0727C2.31749 5.1111 2.38227 5.16342 2.43501 5.22667C2.48775 5.28992 2.52742 5.36287 2.55175 5.44134C2.57607 5.51981 2.58459 5.60227 2.5768 5.684C2.569 5.76574 2.54506 5.84515 2.50634 5.9177C1.83661 7.1757 1.48764 8.5774 1.48995 10.0002C1.48995 11.4752 1.85771 12.8652 2.50634 14.0827C2.5845 14.2292 2.60082 14.4006 2.55169 14.5591C2.50256 14.7175 2.39201 14.8501 2.24437 14.9277C2.09673 15.0053 1.92408 15.0215 1.76441 14.9727C1.60475 14.9239 1.47113 14.8142 1.39297 14.6677C0.627242 13.2294 0.228117 11.6269 0.230479 10.0002C0.230479 8.31645 0.651142 6.72645 1.39297 5.3327C1.43166 5.26013 1.48437 5.19584 1.5481 5.1435C1.61183 5.09115 1.68533 5.05178 1.7644 5.02764C1.84346 5.00349 1.92655 4.99505 2.0089 5.00278C2.09126 5.01051 2.17127 5.03427 2.24437 5.0727ZM18.3681 5.0727C18.4412 5.03427 18.5212 5.01051 18.6036 5.00278C18.6859 4.99505 18.769 5.00349 18.8481 5.02764C18.9271 5.05178 19.0006 5.09115 19.0644 5.1435C19.1281 5.19584 19.1808 5.26013 19.2195 5.3327C19.9853 6.77096 20.3844 8.37349 20.382 10.0002C20.3844 11.6269 19.9853 13.2295 19.2195 14.6677C19.1413 14.8142 19.0077 14.9239 18.8481 14.9727C18.6884 15.0215 18.5157 15.0053 18.3681 14.9277C18.2205 14.8501 18.1099 14.7175 18.0608 14.5591C18.0117 14.4006 18.028 14.2292 18.1061 14.0827C18.7759 12.8247 19.1248 11.423 19.1225 10.0002C19.1225 8.5252 18.7548 7.1352 18.1061 5.9177C18.0674 5.84515 18.0435 5.76574 18.0357 5.684C18.0279 5.60227 18.0364 5.51981 18.0607 5.44134C18.0851 5.36287 18.1247 5.28992 18.1775 5.22667C18.2302 5.16342 18.295 5.1111 18.3681 5.0727ZM4.08068 6.9177C4.15778 6.94754 4.2282 6.99217 4.28792 7.04904C4.34763 7.1059 4.39546 7.17389 4.42868 7.24912C4.4619 7.32435 4.47986 7.40534 4.48152 7.48746C4.48318 7.56957 4.46852 7.65121 4.43837 7.7277C4.15365 8.45199 4.00798 9.22275 4.00889 10.0002C4.00889 10.8027 4.16002 11.569 4.43711 12.2727C4.47225 12.35 4.4912 12.4335 4.49279 12.5182C4.49439 12.603 4.47859 12.6872 4.44638 12.7657C4.41416 12.8442 4.36619 12.9153 4.30539 12.9749C4.24459 13.0344 4.17222 13.081 4.09269 13.1119C4.01316 13.1428 3.92813 13.1573 3.84277 13.1546C3.75741 13.1518 3.67351 13.1319 3.59616 13.0959C3.51881 13.06 3.44964 13.0088 3.39285 12.9455C3.33606 12.8822 3.29283 12.8081 3.2658 12.7277C2.92381 11.8584 2.74867 10.9334 2.74942 10.0002C2.74942 9.03895 2.93204 8.11895 3.2658 7.2727C3.32653 7.11846 3.44645 6.99444 3.59924 6.92788C3.75202 6.86132 3.92518 6.85766 4.08068 6.9177ZM16.5318 6.9177C16.6089 6.88778 16.6911 6.87323 16.7739 6.87488C16.8566 6.87652 16.9382 6.89434 17.014 6.92731C17.0898 6.96028 17.1583 7.00776 17.2156 7.06702C17.2729 7.12629 17.3179 7.19618 17.3479 7.2727C17.6804 8.11895 17.8631 9.03895 17.8631 10.0002C17.8631 10.9615 17.6804 11.8815 17.3467 12.7277C17.2802 12.8737 17.1598 12.9889 17.0103 13.0493C16.8608 13.1098 16.6936 13.1109 16.5432 13.0525C16.3929 12.9941 16.2709 12.8806 16.2024 12.7355C16.1339 12.5904 16.1243 12.4247 16.1754 12.2727C16.4524 11.569 16.6036 10.8027 16.6036 10.0002C16.6036 9.1977 16.4524 8.43145 16.1754 7.7277C16.1144 7.57338 16.1177 7.40134 16.1846 7.24944C16.2514 7.09754 16.3763 6.97821 16.5318 6.9177Z" fill="#313A41"/>
</g>
<defs>
<clipPath id="clip0_508_9544">
<rect width="20.1515" height="20" fill="white" transform="translate(0.230469)"/>
</clipPath>
</defs>
</svg>
