<svg width="21" height="20" viewBox="0 0 21 20" fill="none" xmlns="http://www.w3.org/2000/svg">
<g clip-path="url(#clip0_577_9805)">
<path d="M12.8224 3.75C13.1565 3.75 13.4768 3.8817 13.713 4.11612C13.9492 4.35054 14.0819 4.66848 14.0819 5V15C14.0819 15.3315 13.9492 15.6495 13.713 15.8839C13.4768 16.1183 13.1565 16.25 12.8224 16.25H7.78456C7.45053 16.25 7.13018 16.1183 6.89399 15.8839C6.65779 15.6495 6.52509 15.3315 6.52509 15V5C6.52509 4.66848 6.65779 4.35054 6.89399 4.11612C7.13018 3.8817 7.45053 3.75 7.78456 3.75H12.8224ZM7.78456 2.5C7.1165 2.5 6.4758 2.76339 6.00341 3.23223C5.53101 3.70107 5.26563 4.33696 5.26562 5V15C5.26563 15.663 5.53101 16.2989 6.00341 16.7678C6.4758 17.2366 7.1165 17.5 7.78456 17.5H12.8224C13.4905 17.5 14.1312 17.2366 14.6036 16.7678C15.076 16.2989 15.3414 15.663 15.3414 15V5C15.3414 4.33696 15.076 3.70107 14.6036 3.23223C14.1312 2.76339 13.4905 2.5 12.8224 2.5H7.78456Z" fill="#313A41"/>
<path d="M10.3043 15.0002C10.6383 15.0002 10.9587 14.8685 11.1949 14.6341C11.4311 14.3997 11.5638 14.0817 11.5638 13.7502C11.5638 13.4187 11.4311 13.1007 11.1949 12.8663C10.9587 12.6319 10.6383 12.5002 10.3043 12.5002C9.97025 12.5002 9.6499 12.6319 9.4137 12.8663C9.17751 13.1007 9.04481 13.4187 9.04481 13.7502C9.04481 14.0817 9.17751 14.3997 9.4137 14.6341C9.6499 14.8685 9.97025 15.0002 10.3043 15.0002ZM2.24242 5.0727C2.31554 5.1111 2.38032 5.16342 2.43306 5.22667C2.4858 5.28992 2.52547 5.36287 2.54979 5.44134C2.57412 5.51981 2.58263 5.60227 2.57484 5.684C2.56705 5.76574 2.54311 5.84515 2.50439 5.9177C1.83466 7.1757 1.48569 8.5774 1.488 10.0002C1.488 11.4752 1.85576 12.8652 2.50439 14.0827C2.58255 14.2292 2.59886 14.4006 2.54973 14.5591C2.50061 14.7175 2.39006 14.8501 2.24242 14.9277C2.09478 15.0053 1.92213 15.0215 1.76246 14.9727C1.60279 14.9239 1.46918 14.8142 1.39102 14.6677C0.625289 13.2294 0.226164 11.6269 0.228526 10.0002C0.228526 8.31645 0.649189 6.72645 1.39102 5.3327C1.4297 5.26013 1.48242 5.19584 1.54615 5.1435C1.60988 5.09115 1.68338 5.05178 1.76244 5.02764C1.84151 5.00349 1.92459 4.99505 2.00695 5.00278C2.0893 5.01051 2.16932 5.03427 2.24242 5.0727ZM18.3661 5.0727C18.4393 5.03427 18.5193 5.01051 18.6016 5.00278C18.684 4.99505 18.7671 5.00349 18.8461 5.02764C18.9252 5.05178 18.9987 5.09115 19.0624 5.1435C19.1262 5.19584 19.1789 5.26013 19.2176 5.3327C19.9833 6.77096 20.3825 8.37349 20.38 10.0002C20.3825 11.6269 19.9833 13.2295 19.2176 14.6677C19.1394 14.8142 19.0058 14.9239 18.8461 14.9727C18.6864 15.0215 18.5138 15.0053 18.3661 14.9277C18.2185 14.8501 18.108 14.7175 18.0588 14.5591C18.0097 14.4006 18.026 14.2292 18.1042 14.0827C18.7739 12.8247 19.1229 11.423 19.1206 10.0002C19.1206 8.5252 18.7528 7.1352 18.1042 5.9177C18.0655 5.84515 18.0415 5.76574 18.0337 5.684C18.0259 5.60227 18.0344 5.51981 18.0588 5.44134C18.0831 5.36287 18.1228 5.28992 18.1755 5.22667C18.2283 5.16342 18.293 5.1111 18.3661 5.0727ZM4.07873 6.9177C4.15583 6.94754 4.22625 6.99217 4.28596 7.04904C4.34568 7.1059 4.39351 7.17389 4.42673 7.24912C4.45995 7.32435 4.4779 7.40534 4.47957 7.48746C4.48123 7.56957 4.46656 7.65121 4.43641 7.7277C4.1517 8.45199 4.00603 9.22275 4.00694 10.0002C4.00694 10.8027 4.15807 11.569 4.43515 12.2727C4.4703 12.35 4.48925 12.4335 4.49084 12.5182C4.49243 12.603 4.47664 12.6872 4.44442 12.7657C4.41221 12.8442 4.36424 12.9153 4.30344 12.9749C4.24263 13.0344 4.17027 13.081 4.09074 13.1119C4.01121 13.1428 3.92618 13.1573 3.84082 13.1546C3.75546 13.1518 3.67156 13.1319 3.59421 13.0959C3.51686 13.06 3.44769 13.0088 3.39089 12.9455C3.3341 12.8822 3.29088 12.8081 3.26385 12.7277C2.92186 11.8584 2.74672 10.9334 2.74747 10.0002C2.74747 9.03895 2.93009 8.11895 3.26385 7.2727C3.32458 7.11846 3.4445 6.99444 3.59728 6.92788C3.75007 6.86132 3.92322 6.85766 4.07873 6.9177ZM16.5298 6.9177C16.6069 6.88778 16.6892 6.87323 16.7719 6.87488C16.8547 6.87652 16.9363 6.89434 17.0121 6.92731C17.0878 6.96028 17.1564 7.00776 17.2137 7.06702C17.271 7.12629 17.3159 7.19618 17.346 7.2727C17.6785 8.11895 17.8611 9.03895 17.8611 10.0002C17.8611 10.9615 17.6785 11.8815 17.3447 12.7277C17.2783 12.8737 17.1579 12.9889 17.0083 13.0493C16.8588 13.1098 16.6916 13.1109 16.5413 13.0525C16.3909 12.9941 16.2689 12.8806 16.2005 12.7355C16.132 12.5904 16.1223 12.4247 16.1734 12.2727C16.4505 11.569 16.6016 10.8027 16.6016 10.0002C16.6016 9.1977 16.4505 8.43145 16.1734 7.7277C16.1125 7.57338 16.1158 7.40134 16.1826 7.24944C16.2494 7.09754 16.3744 6.97821 16.5298 6.9177Z" fill="#313A41"/>
</g>
<defs>
<clipPath id="clip0_577_9805">
<rect width="20.1515" height="20" fill="white" transform="translate(0.228516)"/>
</clipPath>
</defs>
</svg>
