<svg width="85" height="50" viewBox="0 0 85 50" fill="none" xmlns="http://www.w3.org/2000/svg">
<path d="M43.875 30V25.3448L47.8178 21.3793C47.8764 21.3205 47.9227 21.2506 47.954 21.1736C47.9852 21.0966 48.0009 21.0142 48 20.931V20.3448C48 20.2534 47.9637 20.1657 47.8993 20.101C47.8348 20.0363 47.7474 20 47.6562 20H37.3437C37.2526 20 37.1651 20.0363 37.1007 20.101C37.0362 20.1657 37 20.2534 37 20.3448V20.9207C37.0001 21.0021 37.0162 21.0828 37.0475 21.1579C37.0787 21.2331 37.1245 21.3013 37.1822 21.3586L41.125 25.3724V28.8897L43.875 30Z" fill="black"/>
<rect x="1" y="1" width="83" height="48" stroke="#E0E0E0"/>
</svg>
