<svg width="91" height="50" viewBox="0 0 91 50" fill="none" xmlns="http://www.w3.org/2000/svg">
<path d="M45.5033 22.5493C44.9035 22.5493 44.3418 22.7827 43.9165 23.2092C43.4932 23.6356 43.2585 24.1989 43.2585 24.8005C43.2585 25.402 43.4932 25.9653 43.9165 26.3918C44.3418 26.8162 44.9035 27.0516 45.5033 27.0516C46.1031 27.0516 46.6647 26.8162 47.09 26.3918C47.5133 25.9653 47.748 25.402 47.748 24.8005C47.748 24.1989 47.5133 23.6356 47.09 23.2092C46.8823 22.9992 46.6351 22.8328 46.3627 22.7195C46.0903 22.6063 45.7981 22.5484 45.5033 22.5493ZM53.774 27.287L52.4621 26.1624C52.5243 25.7802 52.5564 25.3899 52.5564 25.0016C52.5564 24.6134 52.5243 24.2211 52.4621 23.8408L53.774 22.7163C53.8731 22.6312 53.944 22.5179 53.9774 22.3914C54.0107 22.2649 54.0048 22.1312 53.9606 22.0081L53.9425 21.9558C53.5815 20.9433 53.0405 20.0047 52.3457 19.1856L52.3096 19.1434C52.2253 19.0439 52.1128 18.9724 51.9871 18.9383C51.8614 18.9042 51.7284 18.909 51.6055 18.9523L49.9766 19.5337C49.3748 19.0388 48.7048 18.6485 47.9787 18.3769L47.6637 16.6689C47.64 16.5402 47.5777 16.4219 47.4853 16.3295C47.3928 16.2372 47.2746 16.1752 47.1462 16.1519L47.092 16.1418C46.0489 15.9527 44.9496 15.9527 43.9065 16.1418L43.8523 16.1519C43.7239 16.1752 43.6057 16.2372 43.5132 16.3295C43.4208 16.4219 43.3585 16.5402 43.3348 16.6689L43.0178 18.3849C42.2985 18.6587 41.6285 19.048 41.0339 19.5377L39.393 18.9523C39.2701 18.9087 39.137 18.9036 39.0112 18.9378C38.8855 18.9719 38.773 19.0436 38.6889 19.1434L38.6528 19.1856C37.9593 20.0056 37.4184 20.9439 37.056 21.9558L37.0379 22.0081C36.9477 22.2596 37.0219 22.5412 37.2245 22.7163L38.5525 23.8529C38.4903 24.2311 38.4602 24.6174 38.4602 24.9996C38.4602 25.3859 38.4903 25.7721 38.5525 26.1463L37.2285 27.283C37.1294 27.3681 37.0585 27.4814 37.0251 27.6079C36.9918 27.7344 36.9977 27.868 37.0419 27.9911L37.06 28.0434C37.4231 29.0553 37.9587 29.9908 38.6568 30.8136L38.6929 30.8559C38.7772 30.9553 38.8897 31.0268 39.0154 31.061C39.1411 31.0951 39.2741 31.0902 39.397 31.047L41.0379 30.4616C41.6357 30.9544 42.3017 31.3447 43.0218 31.6143L43.3388 33.3303C43.3625 33.459 43.4248 33.5774 43.5172 33.6697C43.6097 33.7621 43.7279 33.824 43.8563 33.8474L43.9105 33.8574C44.9639 34.0475 46.0426 34.0475 47.096 33.8574L47.1502 33.8474C47.2786 33.824 47.3969 33.7621 47.4893 33.6697C47.5817 33.5774 47.644 33.459 47.6677 33.3303L47.9827 31.6223C48.7089 31.3487 49.3789 30.9605 49.9807 30.4656L51.6095 31.047C51.7324 31.0905 51.8655 31.0956 51.9913 31.0615C52.1171 31.0273 52.2295 30.9556 52.3136 30.8559L52.3497 30.8136C53.0478 29.9868 53.5834 29.0553 53.9465 28.0434L53.9646 27.9911C54.0508 27.7417 53.9766 27.462 53.774 27.287ZM45.5033 28.3371C43.5554 28.3371 41.9767 26.7539 41.9767 24.8005C41.9767 22.847 43.5554 21.2638 45.5033 21.2638C47.4511 21.2638 49.0298 22.847 49.0298 24.8005C49.0298 26.7539 47.4511 28.3371 45.5033 28.3371Z" fill="black"/>
<rect x="1" y="1" width="89" height="48" stroke="#E0E0E0"/>
</svg>
