<svg width="92" height="50" viewBox="0 0 92 50" fill="none" xmlns="http://www.w3.org/2000/svg">
<path d="M53.1995 25.1221H45.8768V17.8004C45.8768 17.7103 45.8031 17.6366 45.713 17.6366H45.1806C44.1061 17.6355 43.042 17.8465 42.0493 18.2576C41.0566 18.6687 40.1549 19.2717 39.3958 20.0321C38.6485 20.7771 38.0531 21.6602 37.643 22.6324C37.2171 23.6418 37 24.7126 37 25.8183C37 26.9239 37.2171 27.9927 37.643 29.0021C38.0546 29.9746 38.6443 30.851 39.3958 31.6024C40.1473 32.3538 41.0217 32.9435 41.9964 33.355C43.0042 33.7825 44.088 34.0019 45.1827 34C46.2571 34.0011 47.3212 33.79 48.3139 33.3789C49.3066 32.9679 50.2084 32.3648 50.9674 31.6044C51.719 30.853 52.3087 29.9787 52.7203 29.0041C53.1478 27.9965 53.3672 26.9128 53.3653 25.8183V25.2859C53.3633 25.1958 53.2896 25.1221 53.1995 25.1221ZM54.9994 23.9858L54.9462 23.4084C54.7721 21.5247 53.9366 19.7475 52.5892 18.4064C51.2431 17.0616 49.4692 16.2294 47.5744 16.0539L46.9949 16.0006C46.8986 15.9924 46.8167 16.0661 46.8167 16.1624V24.0185C46.8167 24.1086 46.8905 24.1823 46.9806 24.1823L54.8356 24.1619C54.9318 24.1598 55.0076 24.08 54.9994 23.9858Z" fill="black"/>
<rect x="1" y="1" width="90" height="48" stroke="#E0E0E0"/>
</svg>
