<svg width="93" height="50" viewBox="0 0 93 50" fill="none" xmlns="http://www.w3.org/2000/svg">
<path d="M37 21.7005V21.1005C37 20.6035 37.3987 20.2006 37.8906 20.2006H51.25V18.4008C51.25 17.5996 52.2111 17.1994 52.7704 17.7645L55.7392 20.7641C56.0869 21.1156 56.0869 21.6854 55.7392 22.0368L52.7704 25.0365C52.2132 25.5994 51.25 25.2047 51.25 24.4002V22.6004H37.8906C37.3987 22.6004 37 22.1975 37 21.7005ZM55.1094 27.3998H41.75V25.6C41.75 24.8008 40.7903 24.3972 40.2296 24.9637L37.2608 27.9634C36.9131 28.3148 36.9131 28.8846 37.2608 29.236L40.2296 32.2357C40.7873 32.7992 41.75 32.4032 41.75 31.5994V29.7996H55.1094C55.6013 29.7996 56 29.3967 56 28.8997V28.2998C56 27.8027 55.6013 27.3998 55.1094 27.3998Z" fill="black"/>
<rect x="1" y="1" width="91" height="48" stroke="#E0E0E0"/>
</svg>
