<svg width="94" height="50" viewBox="0 0 94 50" fill="none" xmlns="http://www.w3.org/2000/svg">
<path d="M48 16.7988C43.555 16.7988 39.939 20.3608 39.831 24.7948V24.9998H37.459L41.053 28.8938L44.547 24.9998H41.875V24.7948C41.982 21.4918 44.683 18.8498 48 18.8498C51.386 18.8498 54.131 21.6038 54.131 24.9998C54.131 28.3958 51.386 31.1498 48 31.1498C46.6945 31.1506 45.4231 30.7324 44.373 29.9568L42.967 31.4608C44.402 32.5887 46.1748 33.2009 48 33.1988C52.515 33.1988 56.174 29.5288 56.174 24.9998C56.174 20.4708 52.515 16.7988 48 16.7988ZM47 19.9998V24.9998C47.0011 25.2648 47.1064 25.5187 47.293 25.7068L50.493 28.9068C50.776 28.7238 51.043 28.5178 51.28 28.2788L49 25.9998V19.9998H47Z" fill="black"/>
<rect x="1" y="1" width="92" height="48" stroke="#E0E0E0"/>
</svg>
