<svg width="1412" height="165" viewBox="0 0 1412 165" fill="none" xmlns="http://www.w3.org/2000/svg">
<path fill-rule="evenodd" clip-rule="evenodd" d="M1.81215 91H49.8409V164H1.81215V91Z" fill="#4A4A4A"/>
<path fill-rule="evenodd" clip-rule="evenodd" d="M1.81215 91H49.8409V164H1.81215V91Z" fill="#808080"/>
<path fill-rule="evenodd" clip-rule="evenodd" d="M66.5934 70.9999H114.622V164H66.5934V70.9999Z" fill="#4A4A4A"/>
<path fill-rule="evenodd" clip-rule="evenodd" d="M66.5934 70.9999H114.622V164H66.5934V70.9999Z" fill="#808080"/>
<path fill-rule="evenodd" clip-rule="evenodd" d="M131.379 91H179.407V164H131.379V91Z" fill="#4A4A4A"/>
<path fill-rule="evenodd" clip-rule="evenodd" d="M131.379 91H179.407V164H131.379V91Z" fill="#808080"/>
<path fill-rule="evenodd" clip-rule="evenodd" d="M196.16 100H244.189V164H196.16V100Z" fill="#4A4A4A"/>
<path fill-rule="evenodd" clip-rule="evenodd" d="M196.16 100H244.189V164H196.16V100Z" fill="#808080"/>
<path fill-rule="evenodd" clip-rule="evenodd" d="M260.945 91H308.974V164H260.945V91Z" fill="#4A4A4A"/>
<path fill-rule="evenodd" clip-rule="evenodd" d="M260.945 91H308.974V164H260.945V91Z" fill="#808080"/>
<path fill-rule="evenodd" clip-rule="evenodd" d="M325.726 95.9999H373.755V164H325.726V95.9999Z" fill="#4A4A4A"/>
<path fill-rule="evenodd" clip-rule="evenodd" d="M325.726 95.9999H373.755V164H325.726V95.9999Z" fill="#808080"/>
<path fill-rule="evenodd" clip-rule="evenodd" d="M390.511 0.9999H438.54V164H390.511V0.9999Z" fill="#4A4A4A"/>
<path fill-rule="evenodd" clip-rule="evenodd" d="M390.511 0.9999H438.54V164H390.511V0.9999Z" fill="#808080"/>
<path fill-rule="evenodd" clip-rule="evenodd" d="M455.293 92.9999H503.321V164H455.293V92.9999Z" fill="#4A4A4A"/>
<path fill-rule="evenodd" clip-rule="evenodd" d="M455.293 92.9999H503.321V164H455.293V92.9999Z" fill="#808080"/>
<path fill-rule="evenodd" clip-rule="evenodd" d="M520.074 83H568.103V164H520.074V83Z" fill="#4A4A4A"/>
<path fill-rule="evenodd" clip-rule="evenodd" d="M520.074 83H568.103V164H520.074V83Z" fill="#808080"/>
<path fill-rule="evenodd" clip-rule="evenodd" d="M584.859 54.9999H632.888V164H584.859V54.9999Z" fill="#4A4A4A"/>
<path fill-rule="evenodd" clip-rule="evenodd" d="M584.859 54.9999H632.888V164H584.859V54.9999Z" fill="#808080"/>
<path fill-rule="evenodd" clip-rule="evenodd" d="M649.64 100H697.669V164H649.64V100Z" fill="#4A4A4A"/>
<path fill-rule="evenodd" clip-rule="evenodd" d="M649.64 100H697.669V164H649.64V100Z" fill="#808080"/>
<path fill-rule="evenodd" clip-rule="evenodd" d="M714.425 79.9999H762.454V164H714.425V79.9999Z" fill="#4A4A4A"/>
<path fill-rule="evenodd" clip-rule="evenodd" d="M714.425 79.9999H762.454V164H714.425V79.9999Z" fill="#808080"/>
<path fill-rule="evenodd" clip-rule="evenodd" d="M779.207 95.9999H827.235V164H779.207V95.9999Z" fill="#4A4A4A"/>
<path fill-rule="evenodd" clip-rule="evenodd" d="M779.207 95.9999H827.235V164H779.207V95.9999Z" fill="#808080"/>
<path fill-rule="evenodd" clip-rule="evenodd" d="M843.992 81.9999H892.021V164H843.992V81.9999Z" fill="#4A4A4A"/>
<path fill-rule="evenodd" clip-rule="evenodd" d="M843.992 81.9999H892.021V164H843.992V81.9999Z" fill="#808080"/>
<path fill-rule="evenodd" clip-rule="evenodd" d="M908.773 46H956.802V164H908.773V46Z" fill="#4A4A4A"/>
<path fill-rule="evenodd" clip-rule="evenodd" d="M908.773 46H956.802V164H908.773V46Z" fill="#808080"/>
<path fill-rule="evenodd" clip-rule="evenodd" d="M973.554 103H1021.58V164H973.554V103Z" fill="#4A4A4A"/>
<path fill-rule="evenodd" clip-rule="evenodd" d="M973.554 103H1021.58V164H973.554V103Z" fill="#808080"/>
<path fill-rule="evenodd" clip-rule="evenodd" d="M1038.34 89.9999H1086.37V164H1038.34V89.9999Z" fill="#4A4A4A"/>
<path fill-rule="evenodd" clip-rule="evenodd" d="M1038.34 89.9999H1086.37V164H1038.34V89.9999Z" fill="#808080"/>
<path fill-rule="evenodd" clip-rule="evenodd" d="M1103.12 22.9999H1151.15V164H1103.12V22.9999Z" fill="#4A4A4A"/>
<path fill-rule="evenodd" clip-rule="evenodd" d="M1103.12 22.9999H1151.15V164H1103.12V22.9999Z" fill="#808080"/>
<path fill-rule="evenodd" clip-rule="evenodd" d="M1167.91 95.9999H1215.93V164H1167.91V95.9999Z" fill="#4A4A4A"/>
<path fill-rule="evenodd" clip-rule="evenodd" d="M1167.91 95.9999H1215.93V164H1167.91V95.9999Z" fill="#808080"/>
<path fill-rule="evenodd" clip-rule="evenodd" d="M1232.69 72H1280.72V164H1232.69V72Z" fill="#4A4A4A"/>
<path fill-rule="evenodd" clip-rule="evenodd" d="M1232.69 72H1280.72V164H1232.69V72Z" fill="#808080"/>
<path fill-rule="evenodd" clip-rule="evenodd" d="M1297.47 83H1345.5V164H1297.47V83Z" fill="#4A4A4A"/>
<path fill-rule="evenodd" clip-rule="evenodd" d="M1297.47 83H1345.5V164H1297.47V83Z" fill="#808080"/>
<path fill-rule="evenodd" clip-rule="evenodd" d="M1362.25 103H1410.28V164H1362.25V103Z" fill="#4A4A4A"/>
<path fill-rule="evenodd" clip-rule="evenodd" d="M1362.25 103H1410.28V164H1362.25V103Z" fill="#808080"/>
</svg>
