<svg width="24" height="24" viewBox="0 0 24 24" fill="none" xmlns="http://www.w3.org/2000/svg">
<path d="M11.9977 20C10.9471 20.001 9.90664 19.7948 8.93584 19.3932C7.96505 18.9916 7.08297 18.4023 6.34011 17.6593C5.59725 16.9163 5.00819 16.034 4.60665 15.0629C4.2051 14.0919 3.99895 13.0512 4 12.0003V11.8404C4.032 10.272 4.52409 8.74754 5.4151 7.45657C6.30611 6.1656 7.55676 5.165 9.01162 4.57913C10.4665 3.99326 12.0614 3.84795 13.5981 4.16126C15.1349 4.47457 16.5457 5.2327 17.6552 6.3414C18.7746 7.46019 19.5371 8.88601 19.8461 10.4384C20.155 11.9908 19.9967 13.6 19.3909 15.0623C18.7852 16.5246 17.7594 17.7744 16.4434 18.6533C15.1273 19.5323 13.5801 20.0009 11.9977 20ZM11.9977 13.1283L14.069 15.2002L15.1967 14.0723L13.1253 12.0003L15.1967 9.92844L14.069 8.80049L11.9977 10.8724L9.92626 8.80049L8.79859 9.92844L10.87 12.0003L8.79859 14.0723L9.92626 15.2002L11.9977 13.1291V13.1283Z" fill="white"/>
</svg>
