<svg width="25" height="24" viewBox="0 0 25 24" fill="none" xmlns="http://www.w3.org/2000/svg">
<path d="M12.4977 20C11.4471 20.001 10.4066 19.7948 9.43584 19.3932C8.46505 18.9916 7.58297 18.4023 6.84011 17.6593C6.09725 16.9163 5.50819 16.034 5.10665 15.0629C4.7051 14.0919 4.49895 13.0512 4.5 12.0003V11.8404C4.532 10.272 5.02409 8.74754 5.9151 7.45657C6.80611 6.1656 8.05676 5.165 9.51162 4.57913C10.9665 3.99326 12.5614 3.84795 14.0981 4.16126C15.6349 4.47457 17.0457 5.2327 18.1552 6.3414C19.2746 7.46019 20.0371 8.88601 20.3461 10.4384C20.655 11.9908 20.4967 13.6 19.8909 15.0623C19.2852 16.5246 18.2594 17.7744 16.9434 18.6533C15.6273 19.5323 14.0801 20.0009 12.4977 20ZM12.4977 13.1283L14.569 15.2002L15.6967 14.0723L13.6253 12.0003L15.6967 9.92844L14.569 8.80049L12.4977 10.8724L10.4263 8.80049L9.29859 9.92844L11.37 12.0003L9.29859 14.0723L10.4263 15.2002L12.4977 13.1291V13.1283Z" fill="white"/>
</svg>
