<svg width="134" height="125" viewBox="0 0 134 125" fill="none" xmlns="http://www.w3.org/2000/svg">
<path fill-rule="evenodd" clip-rule="evenodd" d="M5.36823 2.25807C5.36823 3.48602 4.3038 4.48148 2.99076 4.48148C1.67771 4.48148 0.613281 3.48602 0.613281 2.25807C0.613281 1.03012 1.67771 0.034668 2.99076 0.034668C4.3038 0.034668 5.36823 1.03012 5.36823 2.25807ZM17.2525 4.48148C18.5655 4.48148 19.63 3.48602 19.63 2.25807C19.63 1.03012 18.5655 0.034668 17.2525 0.034668C15.9394 0.034668 14.875 1.03012 14.875 2.25807C14.875 3.48602 15.9394 4.48148 17.2525 4.48148ZM33.8995 2.25807C33.8995 3.48602 32.8351 4.48148 31.522 4.48148C30.209 4.48148 29.1445 3.48602 29.1445 2.25807C29.1445 1.03012 30.209 0.034668 31.522 0.034668C32.8351 0.034668 33.8995 1.03012 33.8995 2.25807ZM45.7836 4.48148C47.0966 4.48148 48.161 3.48602 48.161 2.25807C48.161 1.03012 47.0966 0.034668 45.7836 0.034668C44.4705 0.034668 43.4061 1.03012 43.4061 2.25807C43.4061 3.48602 44.4705 4.48148 45.7836 4.48148ZM62.4268 2.25807C62.4268 3.48602 61.3624 4.48148 60.0494 4.48148C58.7363 4.48148 57.6719 3.48602 57.6719 2.25807C57.6719 1.03012 58.7363 0.034668 60.0494 0.034668C61.3624 0.034668 62.4268 1.03012 62.4268 2.25807ZM74.315 4.48148C75.628 4.48148 76.6925 3.48602 76.6925 2.25807C76.6925 1.03012 75.628 0.034668 74.315 0.034668C73.0019 0.034668 71.9375 1.03012 71.9375 2.25807C71.9375 3.48602 73.0019 4.48148 74.315 4.48148ZM90.9581 2.25807C90.9581 3.48602 89.8936 4.48148 88.5806 4.48148C87.2676 4.48148 86.2031 3.48602 86.2031 2.25807C86.2031 1.03012 87.2676 0.034668 88.5806 0.034668C89.8936 0.034668 90.9581 1.03012 90.9581 2.25807ZM102.842 4.48148C104.155 4.48148 105.22 3.48602 105.22 2.25807C105.22 1.03012 104.155 0.034668 102.842 0.034668C101.529 0.034668 100.465 1.03012 100.465 2.25807C100.465 3.48602 101.529 4.48148 102.842 4.48148ZM119.489 2.25807C119.489 3.48602 118.425 4.48148 117.112 4.48148C115.799 4.48148 114.734 3.48602 114.734 2.25807C114.734 1.03012 115.799 0.034668 117.112 0.034668C118.425 0.034668 119.489 1.03012 119.489 2.25807ZM133.751 2.25807C133.751 3.48602 132.687 4.48148 131.374 4.48148C130.061 4.48148 128.996 3.48602 128.996 2.25807C128.996 1.03012 130.061 0.034668 131.374 0.034668C132.687 0.034668 133.751 1.03012 133.751 2.25807ZM131.374 17.8218C132.687 17.8218 133.751 16.8264 133.751 15.5984C133.751 14.3705 132.687 13.375 131.374 13.375C130.061 13.375 128.996 14.3705 128.996 15.5984C128.996 16.8264 130.061 17.8218 131.374 17.8218ZM119.489 15.5984C119.489 16.8264 118.425 17.8218 117.112 17.8218C115.799 17.8218 114.734 16.8264 114.734 15.5984C114.734 14.3705 115.799 13.375 117.112 13.375C118.425 13.375 119.489 14.3705 119.489 15.5984ZM102.842 17.8218C104.155 17.8218 105.22 16.8264 105.22 15.5984C105.22 14.3705 104.155 13.375 102.842 13.375C101.529 13.375 100.465 14.3705 100.465 15.5984C100.465 16.8264 101.529 17.8218 102.842 17.8218ZM90.9581 15.5984C90.9581 16.8264 89.8936 17.8218 88.5806 17.8218C87.2676 17.8218 86.2031 16.8264 86.2031 15.5984C86.2031 14.3705 87.2676 13.375 88.5806 13.375C89.8936 13.375 90.9581 14.3705 90.9581 15.5984ZM74.315 17.8218C75.628 17.8218 76.6925 16.8264 76.6925 15.5984C76.6925 14.3705 75.628 13.375 74.315 13.375C73.0019 13.375 71.9375 14.3705 71.9375 15.5984C71.9375 16.8264 73.0019 17.8218 74.315 17.8218ZM62.4268 15.5984C62.4268 16.8264 61.3624 17.8218 60.0494 17.8218C58.7363 17.8218 57.6719 16.8264 57.6719 15.5984C57.6719 14.3705 58.7363 13.375 60.0494 13.375C61.3624 13.375 62.4268 14.3705 62.4268 15.5984ZM45.7836 17.8218C47.0966 17.8218 48.161 16.8264 48.161 15.5984C48.161 14.3705 47.0966 13.375 45.7836 13.375C44.4705 13.375 43.4061 14.3705 43.4061 15.5984C43.4061 16.8264 44.4705 17.8218 45.7836 17.8218ZM33.8995 15.5984C33.8995 16.8264 32.8351 17.8218 31.522 17.8218C30.209 17.8218 29.1445 16.8264 29.1445 15.5984C29.1445 14.3705 30.209 13.375 31.522 13.375C32.8351 13.375 33.8995 14.3705 33.8995 15.5984ZM17.2525 17.8218C18.5655 17.8218 19.63 16.8264 19.63 15.5984C19.63 14.3705 18.5655 13.375 17.2525 13.375C15.9394 13.375 14.875 14.3705 14.875 15.5984C14.875 16.8264 15.9394 17.8218 17.2525 17.8218ZM5.36823 15.5984C5.36823 16.8264 4.3038 17.8218 2.99076 17.8218C1.67771 17.8218 0.613281 16.8264 0.613281 15.5984C0.613281 14.3705 1.67771 13.375 2.99076 13.375C4.3038 13.375 5.36823 14.3705 5.36823 15.5984ZM131.374 31.1621C132.687 31.1621 133.751 30.1667 133.751 28.9387C133.751 27.7108 132.687 26.7153 131.374 26.7153C130.061 26.7153 128.996 27.7108 128.996 28.9387C128.996 30.1667 130.061 31.1621 131.374 31.1621ZM119.489 28.9388C119.489 30.1667 118.425 31.1622 117.112 31.1622C115.799 31.1622 114.734 30.1667 114.734 28.9388C114.734 27.7108 115.799 26.7154 117.112 26.7154C118.425 26.7154 119.489 27.7108 119.489 28.9388ZM102.842 31.1621C104.155 31.1621 105.22 30.1667 105.22 28.9387C105.22 27.7108 104.155 26.7153 102.842 26.7153C101.529 26.7153 100.465 27.7108 100.465 28.9387C100.465 30.1667 101.529 31.1621 102.842 31.1621ZM90.9581 28.9387C90.9581 30.1667 89.8936 31.1621 88.5806 31.1621C87.2676 31.1621 86.2031 30.1667 86.2031 28.9387C86.2031 27.7108 87.2676 26.7153 88.5806 26.7153C89.8936 26.7153 90.9581 27.7108 90.9581 28.9387ZM74.315 31.1621C75.628 31.1621 76.6925 30.1667 76.6925 28.9387C76.6925 27.7108 75.628 26.7153 74.315 26.7153C73.0019 26.7153 71.9375 27.7108 71.9375 28.9387C71.9375 30.1667 73.0019 31.1621 74.315 31.1621ZM62.4268 28.9387C62.4268 30.1667 61.3624 31.1621 60.0494 31.1621C58.7363 31.1621 57.6719 30.1667 57.6719 28.9387C57.6719 27.7108 58.7363 26.7153 60.0494 26.7153C61.3624 26.7153 62.4268 27.7108 62.4268 28.9387ZM45.7836 31.1622C47.0966 31.1622 48.161 30.1667 48.161 28.9388C48.161 27.7108 47.0966 26.7154 45.7836 26.7154C44.4705 26.7154 43.4061 27.7108 43.4061 28.9388C43.4061 30.1667 44.4705 31.1622 45.7836 31.1622ZM33.8995 28.9387C33.8995 30.1667 32.8351 31.1621 31.522 31.1621C30.209 31.1621 29.1445 30.1667 29.1445 28.9387C29.1445 27.7108 30.209 26.7153 31.522 26.7153C32.8351 26.7153 33.8995 27.7108 33.8995 28.9387ZM17.2525 31.1621C18.5655 31.1621 19.63 30.1667 19.63 28.9387C19.63 27.7108 18.5655 26.7153 17.2525 26.7153C15.9394 26.7153 14.875 27.7108 14.875 28.9387C14.875 30.1667 15.9394 31.1621 17.2525 31.1621ZM5.36823 28.9388C5.36823 30.1667 4.3038 31.1622 2.99076 31.1622C1.67771 31.1622 0.613281 30.1667 0.613281 28.9388C0.613281 27.7108 1.67771 26.7154 2.99076 26.7154C4.3038 26.7154 5.36823 27.7108 5.36823 28.9388ZM131.374 44.503C132.687 44.503 133.751 43.5075 133.751 42.2796C133.751 41.0516 132.687 40.0562 131.374 40.0562C130.061 40.0562 128.996 41.0516 128.996 42.2796C128.996 43.5075 130.061 44.503 131.374 44.503ZM119.489 42.2795C119.489 43.5074 118.425 44.5029 117.112 44.5029C115.799 44.5029 114.734 43.5074 114.734 42.2795C114.734 41.0515 115.799 40.0561 117.112 40.0561C118.425 40.0561 119.489 41.0515 119.489 42.2795ZM102.842 44.503C104.155 44.503 105.22 43.5075 105.22 42.2796C105.22 41.0516 104.155 40.0562 102.842 40.0562C101.529 40.0562 100.465 41.0516 100.465 42.2796C100.465 43.5075 101.529 44.503 102.842 44.503ZM90.9581 42.2796C90.9581 43.5075 89.8936 44.503 88.5806 44.503C87.2676 44.503 86.2031 43.5075 86.2031 42.2796C86.2031 41.0516 87.2676 40.0562 88.5806 40.0562C89.8936 40.0562 90.9581 41.0516 90.9581 42.2796ZM74.315 44.503C75.628 44.503 76.6925 43.5075 76.6925 42.2796C76.6925 41.0516 75.628 40.0562 74.315 40.0562C73.0019 40.0562 71.9375 41.0516 71.9375 42.2796C71.9375 43.5075 73.0019 44.503 74.315 44.503ZM62.4268 42.2796C62.4268 43.5075 61.3624 44.503 60.0494 44.503C58.7363 44.503 57.6719 43.5075 57.6719 42.2796C57.6719 41.0516 58.7363 40.0562 60.0494 40.0562C61.3624 40.0562 62.4268 41.0516 62.4268 42.2796ZM45.7836 44.5029C47.0966 44.5029 48.161 43.5074 48.161 42.2795C48.161 41.0515 47.0966 40.0561 45.7836 40.0561C44.4705 40.0561 43.4061 41.0515 43.4061 42.2795C43.4061 43.5074 44.4705 44.5029 45.7836 44.5029ZM33.8995 42.2796C33.8995 43.5075 32.8351 44.503 31.522 44.503C30.209 44.503 29.1445 43.5075 29.1445 42.2796C29.1445 41.0516 30.209 40.0562 31.522 40.0562C32.8351 40.0562 33.8995 41.0516 33.8995 42.2796ZM17.2525 44.503C18.5655 44.503 19.63 43.5075 19.63 42.2796C19.63 41.0516 18.5655 40.0562 17.2525 40.0562C15.9394 40.0562 14.875 41.0516 14.875 42.2796C14.875 43.5075 15.9394 44.503 17.2525 44.503ZM5.36823 42.2795C5.36823 43.5074 4.3038 44.5029 2.99076 44.5029C1.67771 44.5029 0.613281 43.5074 0.613281 42.2795C0.613281 41.0515 1.67771 40.0561 2.99076 40.0561C4.3038 40.0561 5.36823 41.0515 5.36823 42.2795ZM131.374 57.8433C132.687 57.8433 133.751 56.8478 133.751 55.6199C133.751 54.3919 132.687 53.3965 131.374 53.3965C130.061 53.3965 128.996 54.3919 128.996 55.6199C128.996 56.8478 130.061 57.8433 131.374 57.8433ZM119.489 55.6198C119.489 56.8478 118.425 57.8432 117.112 57.8432C115.799 57.8432 114.734 56.8478 114.734 55.6198C114.734 54.3919 115.799 53.3964 117.112 53.3964C118.425 53.3964 119.489 54.3919 119.489 55.6198ZM102.842 57.8433C104.155 57.8433 105.22 56.8478 105.22 55.6199C105.22 54.3919 104.155 53.3965 102.842 53.3965C101.529 53.3965 100.465 54.3919 100.465 55.6199C100.465 56.8478 101.529 57.8433 102.842 57.8433ZM90.9581 55.6199C90.9581 56.8478 89.8936 57.8433 88.5806 57.8433C87.2676 57.8433 86.2031 56.8478 86.2031 55.6199C86.2031 54.3919 87.2676 53.3965 88.5806 53.3965C89.8936 53.3965 90.9581 54.3919 90.9581 55.6199ZM74.315 57.8433C75.628 57.8433 76.6925 56.8478 76.6925 55.6199C76.6925 54.3919 75.628 53.3965 74.315 53.3965C73.0019 53.3965 71.9375 54.3919 71.9375 55.6199C71.9375 56.8478 73.0019 57.8433 74.315 57.8433ZM62.4268 55.6199C62.4268 56.8478 61.3624 57.8433 60.0494 57.8433C58.7363 57.8433 57.6719 56.8478 57.6719 55.6199C57.6719 54.3919 58.7363 53.3965 60.0494 53.3965C61.3624 53.3965 62.4268 54.3919 62.4268 55.6199ZM45.7836 57.8432C47.0966 57.8432 48.161 56.8478 48.161 55.6198C48.161 54.3919 47.0966 53.3964 45.7836 53.3964C44.4705 53.3964 43.4061 54.3919 43.4061 55.6198C43.4061 56.8478 44.4705 57.8432 45.7836 57.8432ZM33.8995 55.6199C33.8995 56.8478 32.8351 57.8433 31.522 57.8433C30.209 57.8433 29.1445 56.8478 29.1445 55.6199C29.1445 54.3919 30.209 53.3965 31.522 53.3965C32.8351 53.3965 33.8995 54.3919 33.8995 55.6199ZM17.2525 57.8433C18.5655 57.8433 19.63 56.8478 19.63 55.6199C19.63 54.3919 18.5655 53.3965 17.2525 53.3965C15.9394 53.3965 14.875 54.3919 14.875 55.6199C14.875 56.8478 15.9394 57.8433 17.2525 57.8433ZM5.36823 55.6198C5.36823 56.8478 4.3038 57.8432 2.99076 57.8432C1.67771 57.8432 0.613281 56.8478 0.613281 55.6198C0.613281 54.3919 1.67771 53.3964 2.99076 53.3964C4.3038 53.3964 5.36823 54.3919 5.36823 55.6198ZM131.374 71.1836C132.687 71.1836 133.751 70.1882 133.751 68.9602C133.751 67.7323 132.687 66.7368 131.374 66.7368C130.061 66.7368 128.996 67.7323 128.996 68.9602C128.996 70.1882 130.061 71.1836 131.374 71.1836ZM119.489 68.9602C119.489 70.1881 118.425 71.1836 117.112 71.1836C115.799 71.1836 114.734 70.1881 114.734 68.9602C114.734 67.7322 115.799 66.7368 117.112 66.7368C118.425 66.7368 119.489 67.7322 119.489 68.9602ZM102.842 71.1836C104.155 71.1836 105.22 70.1882 105.22 68.9602C105.22 67.7323 104.155 66.7368 102.842 66.7368C101.529 66.7368 100.465 67.7323 100.465 68.9602C100.465 70.1882 101.529 71.1836 102.842 71.1836ZM90.9581 68.9602C90.9581 70.1882 89.8936 71.1836 88.5806 71.1836C87.2676 71.1836 86.2031 70.1882 86.2031 68.9602C86.2031 67.7323 87.2676 66.7368 88.5806 66.7368C89.8936 66.7368 90.9581 67.7323 90.9581 68.9602ZM74.315 71.1836C75.628 71.1836 76.6925 70.1882 76.6925 68.9602C76.6925 67.7323 75.628 66.7368 74.315 66.7368C73.0019 66.7368 71.9375 67.7323 71.9375 68.9602C71.9375 70.1882 73.0019 71.1836 74.315 71.1836ZM62.4268 68.9602C62.4268 70.1882 61.3624 71.1836 60.0494 71.1836C58.7363 71.1836 57.6719 70.1882 57.6719 68.9602C57.6719 67.7323 58.7363 66.7368 60.0494 66.7368C61.3624 66.7368 62.4268 67.7323 62.4268 68.9602ZM45.7836 71.1836C47.0966 71.1836 48.161 70.1881 48.161 68.9602C48.161 67.7322 47.0966 66.7368 45.7836 66.7368C44.4705 66.7368 43.4061 67.7322 43.4061 68.9602C43.4061 70.1881 44.4705 71.1836 45.7836 71.1836ZM33.8995 68.9602C33.8995 70.1882 32.8351 71.1836 31.522 71.1836C30.209 71.1836 29.1445 70.1882 29.1445 68.9602C29.1445 67.7323 30.209 66.7368 31.522 66.7368C32.8351 66.7368 33.8995 67.7323 33.8995 68.9602ZM17.2525 71.1836C18.5655 71.1836 19.63 70.1882 19.63 68.9602C19.63 67.7323 18.5655 66.7368 17.2525 66.7368C15.9394 66.7368 14.875 67.7323 14.875 68.9602C14.875 70.1882 15.9394 71.1836 17.2525 71.1836ZM5.36823 68.9602C5.36823 70.1881 4.3038 71.1836 2.99076 71.1836C1.67771 71.1836 0.613281 70.1881 0.613281 68.9602C0.613281 67.7322 1.67771 66.7368 2.99076 66.7368C4.3038 66.7368 5.36823 67.7322 5.36823 68.9602ZM131.374 84.524C132.687 84.524 133.751 83.5285 133.751 82.3006C133.751 81.0726 132.687 80.0771 131.374 80.0771C130.061 80.0771 128.996 81.0726 128.996 82.3006C128.996 83.5285 130.061 84.524 131.374 84.524ZM119.489 82.3005C119.489 83.5285 118.425 84.5239 117.112 84.5239C115.799 84.5239 114.734 83.5285 114.734 82.3005C114.734 81.0726 115.799 80.0771 117.112 80.0771C118.425 80.0771 119.489 81.0726 119.489 82.3005ZM102.842 84.524C104.155 84.524 105.22 83.5285 105.22 82.3006C105.22 81.0726 104.155 80.0771 102.842 80.0771C101.529 80.0771 100.465 81.0726 100.465 82.3006C100.465 83.5285 101.529 84.524 102.842 84.524ZM90.9581 82.3006C90.9581 83.5285 89.8936 84.524 88.5806 84.524C87.2676 84.524 86.2031 83.5285 86.2031 82.3006C86.2031 81.0726 87.2676 80.0771 88.5806 80.0771C89.8936 80.0771 90.9581 81.0726 90.9581 82.3006ZM74.315 84.524C75.628 84.524 76.6925 83.5285 76.6925 82.3006C76.6925 81.0726 75.628 80.0771 74.315 80.0771C73.0019 80.0771 71.9375 81.0726 71.9375 82.3006C71.9375 83.5285 73.0019 84.524 74.315 84.524ZM62.4268 82.3006C62.4268 83.5285 61.3624 84.524 60.0494 84.524C58.7363 84.524 57.6719 83.5285 57.6719 82.3006C57.6719 81.0726 58.7363 80.0771 60.0494 80.0771C61.3624 80.0771 62.4268 81.0726 62.4268 82.3006ZM45.7836 84.5239C47.0966 84.5239 48.161 83.5285 48.161 82.3005C48.161 81.0726 47.0966 80.0771 45.7836 80.0771C44.4705 80.0771 43.4061 81.0726 43.4061 82.3005C43.4061 83.5285 44.4705 84.5239 45.7836 84.5239ZM33.8995 82.3006C33.8995 83.5285 32.8351 84.524 31.522 84.524C30.209 84.524 29.1445 83.5285 29.1445 82.3006C29.1445 81.0726 30.209 80.0771 31.522 80.0771C32.8351 80.0771 33.8995 81.0726 33.8995 82.3006ZM17.2525 84.524C18.5655 84.524 19.63 83.5285 19.63 82.3006C19.63 81.0726 18.5655 80.0771 17.2525 80.0771C15.9394 80.0771 14.875 81.0726 14.875 82.3006C14.875 83.5285 15.9394 84.524 17.2525 84.524ZM5.36823 82.3005C5.36823 83.5285 4.3038 84.5239 2.99076 84.5239C1.67771 84.5239 0.613281 83.5285 0.613281 82.3005C0.613281 81.0726 1.67771 80.0771 2.99076 80.0771C4.3038 80.0771 5.36823 81.0726 5.36823 82.3005ZM131.374 97.8643C132.687 97.8643 133.751 96.8688 133.751 95.6409C133.751 94.4129 132.687 93.4175 131.374 93.4175C130.061 93.4175 128.996 94.4129 128.996 95.6409C128.996 96.8688 130.061 97.8643 131.374 97.8643ZM119.489 95.6409C119.489 96.8688 118.425 97.8643 117.112 97.8643C115.799 97.8643 114.734 96.8688 114.734 95.6409C114.734 94.4129 115.799 93.4175 117.112 93.4175C118.425 93.4175 119.489 94.4129 119.489 95.6409ZM102.842 97.8643C104.155 97.8643 105.22 96.8688 105.22 95.6409C105.22 94.4129 104.155 93.4175 102.842 93.4175C101.529 93.4175 100.465 94.4129 100.465 95.6409C100.465 96.8688 101.529 97.8643 102.842 97.8643ZM90.9581 95.6409C90.9581 96.8688 89.8936 97.8643 88.5806 97.8643C87.2676 97.8643 86.2031 96.8688 86.2031 95.6409C86.2031 94.4129 87.2676 93.4175 88.5806 93.4175C89.8936 93.4175 90.9581 94.4129 90.9581 95.6409ZM74.315 97.8643C75.628 97.8643 76.6925 96.8688 76.6925 95.6409C76.6925 94.4129 75.628 93.4175 74.315 93.4175C73.0019 93.4175 71.9375 94.4129 71.9375 95.6409C71.9375 96.8688 73.0019 97.8643 74.315 97.8643ZM62.4268 95.6409C62.4268 96.8688 61.3624 97.8643 60.0494 97.8643C58.7363 97.8643 57.6719 96.8688 57.6719 95.6409C57.6719 94.4129 58.7363 93.4175 60.0494 93.4175C61.3624 93.4175 62.4268 94.4129 62.4268 95.6409ZM45.7836 97.8643C47.0966 97.8643 48.161 96.8688 48.161 95.6409C48.161 94.4129 47.0966 93.4175 45.7836 93.4175C44.4705 93.4175 43.4061 94.4129 43.4061 95.6409C43.4061 96.8688 44.4705 97.8643 45.7836 97.8643ZM33.8995 95.6409C33.8995 96.8688 32.8351 97.8643 31.522 97.8643C30.209 97.8643 29.1445 96.8688 29.1445 95.6409C29.1445 94.4129 30.209 93.4175 31.522 93.4175C32.8351 93.4175 33.8995 94.4129 33.8995 95.6409ZM17.2525 97.8643C18.5655 97.8643 19.63 96.8688 19.63 95.6409C19.63 94.4129 18.5655 93.4175 17.2525 93.4175C15.9394 93.4175 14.875 94.4129 14.875 95.6409C14.875 96.8688 15.9394 97.8643 17.2525 97.8643ZM5.36823 95.6409C5.36823 96.8688 4.3038 97.8643 2.99076 97.8643C1.67771 97.8643 0.613281 96.8688 0.613281 95.6409C0.613281 94.4129 1.67771 93.4175 2.99076 93.4175C4.3038 93.4175 5.36823 94.4129 5.36823 95.6409ZM131.374 111.205C132.687 111.205 133.751 110.21 133.751 108.982C133.751 107.754 132.687 106.758 131.374 106.758C130.061 106.758 128.996 107.754 128.996 108.982C128.996 110.21 130.061 111.205 131.374 111.205ZM119.489 108.982C119.489 110.21 118.425 111.205 117.112 111.205C115.799 111.205 114.734 110.21 114.734 108.982C114.734 107.754 115.799 106.758 117.112 106.758C118.425 106.758 119.489 107.754 119.489 108.982ZM102.842 111.205C104.155 111.205 105.22 110.21 105.22 108.982C105.22 107.754 104.155 106.758 102.842 106.758C101.529 106.758 100.465 107.754 100.465 108.982C100.465 110.21 101.529 111.205 102.842 111.205ZM90.9581 108.982C90.9581 110.21 89.8936 111.205 88.5806 111.205C87.2676 111.205 86.2031 110.21 86.2031 108.982C86.2031 107.754 87.2676 106.758 88.5806 106.758C89.8936 106.758 90.9581 107.754 90.9581 108.982ZM74.315 111.205C75.628 111.205 76.6925 110.21 76.6925 108.982C76.6925 107.754 75.628 106.758 74.315 106.758C73.0019 106.758 71.9375 107.754 71.9375 108.982C71.9375 110.21 73.0019 111.205 74.315 111.205ZM62.4268 108.982C62.4268 110.21 61.3624 111.205 60.0494 111.205C58.7363 111.205 57.6719 110.21 57.6719 108.982C57.6719 107.754 58.7363 106.758 60.0494 106.758C61.3624 106.758 62.4268 107.754 62.4268 108.982ZM45.7836 111.205C47.0966 111.205 48.161 110.21 48.161 108.982C48.161 107.754 47.0966 106.758 45.7836 106.758C44.4705 106.758 43.4061 107.754 43.4061 108.982C43.4061 110.21 44.4705 111.205 45.7836 111.205ZM33.8995 108.982C33.8995 110.21 32.8351 111.205 31.522 111.205C30.209 111.205 29.1445 110.21 29.1445 108.982C29.1445 107.754 30.209 106.758 31.522 106.758C32.8351 106.758 33.8995 107.754 33.8995 108.982ZM17.2525 111.205C18.5655 111.205 19.63 110.21 19.63 108.982C19.63 107.754 18.5655 106.758 17.2525 106.758C15.9394 106.758 14.875 107.754 14.875 108.982C14.875 110.21 15.9394 111.205 17.2525 111.205ZM5.36823 108.982C5.36823 110.21 4.3038 111.205 2.99076 111.205C1.67771 111.205 0.613281 110.21 0.613281 108.982C0.613281 107.754 1.67771 106.758 2.99076 106.758C4.3038 106.758 5.36823 107.754 5.36823 108.982ZM131.374 124.545C132.687 124.545 133.751 123.55 133.751 122.322C133.751 121.094 132.687 120.099 131.374 120.099C130.061 120.099 128.996 121.094 128.996 122.322C128.996 123.55 130.061 124.545 131.374 124.545ZM119.489 122.322C119.489 123.55 118.425 124.545 117.112 124.545C115.799 124.545 114.734 123.55 114.734 122.322C114.734 121.094 115.799 120.099 117.112 120.099C118.425 120.099 119.489 121.094 119.489 122.322ZM102.842 124.545C104.155 124.545 105.22 123.55 105.22 122.322C105.22 121.094 104.155 120.099 102.842 120.099C101.529 120.099 100.465 121.094 100.465 122.322C100.465 123.55 101.529 124.545 102.842 124.545ZM90.9581 122.322C90.9581 123.55 89.8936 124.545 88.5806 124.545C87.2676 124.545 86.2031 123.55 86.2031 122.322C86.2031 121.094 87.2676 120.099 88.5806 120.099C89.8936 120.099 90.9581 121.094 90.9581 122.322ZM74.315 124.545C75.628 124.545 76.6925 123.55 76.6925 122.322C76.6925 121.094 75.628 120.099 74.315 120.099C73.0019 120.099 71.9375 121.094 71.9375 122.322C71.9375 123.55 73.0019 124.545 74.315 124.545ZM62.4268 122.322C62.4268 123.55 61.3624 124.545 60.0494 124.545C58.7363 124.545 57.6719 123.55 57.6719 122.322C57.6719 121.094 58.7363 120.099 60.0494 120.099C61.3624 120.099 62.4268 121.094 62.4268 122.322ZM45.7836 124.545C47.0966 124.545 48.161 123.55 48.161 122.322C48.161 121.094 47.0966 120.099 45.7836 120.099C44.4705 120.099 43.4061 121.094 43.4061 122.322C43.4061 123.55 44.4705 124.545 45.7836 124.545ZM33.8995 122.322C33.8995 123.55 32.8351 124.545 31.522 124.545C30.209 124.545 29.1445 123.55 29.1445 122.322C29.1445 121.094 30.209 120.099 31.522 120.099C32.8351 120.099 33.8995 121.094 33.8995 122.322ZM17.2525 124.545C18.5655 124.545 19.63 123.55 19.63 122.322C19.63 121.094 18.5655 120.099 17.2525 120.099C15.9394 120.099 14.875 121.094 14.875 122.322C14.875 123.55 15.9394 124.545 17.2525 124.545ZM5.36823 122.322C5.36823 123.55 4.3038 124.545 2.99076 124.545C1.67771 124.545 0.613281 123.55 0.613281 122.322C0.613281 121.094 1.67771 120.099 2.99076 120.099C4.3038 120.099 5.36823 121.094 5.36823 122.322Z" fill="#D6E8FF"/>
</svg>
