<svg width="65" height="37" viewBox="0 0 65 37" fill="none" xmlns="http://www.w3.org/2000/svg">
<path d="M23.396 -0.0828101L24.3012 1.11326V1.11326L23.396 -0.0828101ZM25.7881 -0.0828101L24.8829 1.11326V1.11326L25.7881 -0.0828101ZM0.0383964 17.5949L0.943614 18.7909L0.943614 18.7909L0.0383964 17.5949ZM0.0383964 19.4053L-0.866823 20.6014H-0.866822L0.0383964 19.4053ZM23.396 37.083L24.3012 35.8869H24.3012L23.396 37.083ZM25.7881 37.083L24.8829 35.8869H24.8829L25.7881 37.083ZM31.2313 32.9634L32.1435 31.7726C31.6079 31.3623 30.8642 31.3601 30.3261 31.7673L31.2313 32.9634ZM36.6018 37.0775L35.6896 38.2682L36.6018 37.0775ZM37.8 37.4579L37.7965 38.9579H37.7965L37.8 37.4579ZM39.0012 37.083L38.0959 35.8869L38.0959 35.8869L39.0012 37.083ZM62.3588 19.4053L61.4535 18.2092L61.4535 18.2092L62.3588 19.4053ZM62.3588 17.5949L61.4535 18.7909L61.4535 18.7909L62.3588 17.5949ZM39.0012 -0.0828101L38.0959 1.11326V1.11326L39.0012 -0.0828101ZM36.609 -0.0828101L37.5142 1.11326L37.5143 1.11326L36.609 -0.0828101ZM31.1986 4.01197L30.2934 5.20804C30.8288 5.61328 31.5683 5.61328 32.1038 5.20804L31.1986 4.01197ZM49.1457 17.5949L48.2379 18.789L48.2412 18.7914L49.1457 17.5949ZM49.1476 17.5963L48.2396 18.7903L48.2447 18.7941L49.1476 17.5963ZM49.1484 17.5969L50.0561 16.4027L50.0513 16.3991L49.1484 17.5969ZM49.1457 19.4053L50.0457 20.6053L50.0509 20.6014L49.1457 19.4053ZM49.1455 19.4055L48.2455 18.2054L48.2407 18.2091L49.1455 19.4055ZM49.1398 19.4098L48.2349 18.2134L48.2346 18.2137L49.1398 19.4098ZM33.6235 31.1529L32.7183 29.9568C32.3449 30.2394 32.1249 30.6802 32.1235 31.1485C32.1222 31.6168 32.3396 32.0589 32.7113 32.3437L33.6235 31.1529ZM37.8124 34.3618L36.9002 35.5526C37.4358 35.9629 38.1795 35.9651 38.7176 35.5579L37.8124 34.3618ZM58.7705 18.5001L59.6758 19.6961C60.0504 19.4126 60.2705 18.9699 60.2705 18.5001C60.2705 18.0302 60.0504 17.5875 59.6758 17.304L58.7705 18.5001ZM37.8051 2.63284L38.7103 1.43678C38.1749 1.03153 37.4353 1.03153 36.8999 1.43678L37.8051 2.63284ZM33.6253 5.79626L32.72 4.60019C32.3459 4.88339 32.1258 5.32538 32.1253 5.79465C32.1248 6.26393 32.3439 6.70639 32.7175 6.99039L33.6253 5.79626ZM45.5573 18.4999L46.4623 19.6961C46.837 19.4126 47.0573 18.9699 47.0573 18.5C47.0573 18.0302 46.8372 17.5874 46.4625 17.3039L45.5573 18.4999ZM24.5921 2.63284L25.4973 1.43678C24.9618 1.03153 24.2223 1.03153 23.6868 1.43678L24.5921 2.63284ZM3.6266 18.5001L2.72138 17.304C2.34675 17.5875 2.1266 18.0302 2.1266 18.5001C2.1266 18.9699 2.34675 19.4126 2.72138 19.6961L3.6266 18.5001ZM24.5921 34.3673L23.6868 35.5634C24.2223 35.9686 24.9618 35.9686 25.4973 35.5634L24.5921 34.3673ZM29.9592 30.3053L30.8645 31.5013C30.8913 31.481 30.9175 31.4598 30.943 31.4377L29.9592 30.3053ZM30.0399 30.2399L29.1349 29.0437L29.1349 29.0437L30.0399 30.2399ZM24.3012 1.11326C24.3286 1.09249 24.4286 1.04224 24.5921 1.04224C24.7555 1.04224 24.8555 1.09249 24.8829 1.11326L26.6933 -1.27888C26.0602 -1.75805 25.2944 -1.95776 24.5921 -1.95776C23.8897 -1.95776 23.1239 -1.75805 22.4908 -1.27888L24.3012 1.11326ZM0.943614 18.7909L24.3012 1.11326L22.4908 -1.27888L-0.866822 16.3988L0.943614 18.7909ZM0.943615 18.2092C0.932151 18.2006 1.04297 18.292 1.04297 18.5001C1.04297 18.7081 0.93215 18.7996 0.943614 18.7909L-0.866821 16.3988C-1.51593 16.8901 -1.95703 17.6368 -1.95703 18.5001C-1.95703 19.3634 -1.51593 20.1101 -0.866823 20.6014L0.943615 18.2092ZM24.3012 35.8869L0.943614 18.2092L-0.866822 20.6014L22.4908 38.279L24.3012 35.8869ZM24.8829 35.8869C24.8555 35.9077 24.7555 35.9579 24.5921 35.9579C24.4286 35.9579 24.3286 35.9077 24.3012 35.8869L22.4908 38.279C23.1239 38.7582 23.8897 38.9579 24.5921 38.9579C25.2944 38.9579 26.0602 38.7582 26.6933 38.279L24.8829 35.8869ZM30.3261 31.7673L24.8829 35.8869L26.6933 38.279L32.1366 34.1594L30.3261 31.7673ZM37.514 35.8867L32.1435 31.7726L30.3192 34.1541L35.6896 38.2682L37.514 35.8867ZM37.8034 35.9579C37.637 35.9575 37.5363 35.9038 37.514 35.8867L35.6896 38.2682C36.3004 38.7361 37.0622 38.9562 37.7965 38.9579L37.8034 35.9579ZM38.0959 35.8869C38.072 35.905 37.9698 35.9583 37.8034 35.9579L37.7965 38.9579C38.5309 38.9596 39.2934 38.743 39.9064 38.279L38.0959 35.8869ZM61.4535 18.2092L38.0959 35.8869L39.9064 38.279L63.264 20.6014L61.4535 18.2092ZM61.4535 18.7909C61.465 18.7996 61.3542 18.7081 61.3542 18.5001C61.3542 18.292 61.465 18.2005 61.4535 18.2092L63.264 20.6014C63.9131 20.1101 64.3542 19.3634 64.3542 18.5001C64.3542 17.6368 63.9131 16.8901 63.264 16.3988L61.4535 18.7909ZM38.0959 1.11326L61.4535 18.7909L63.264 16.3988L39.9064 -1.27888L38.0959 1.11326ZM37.5143 1.11326C37.5417 1.09249 37.6417 1.04224 37.8051 1.04224C37.9685 1.04224 38.0685 1.09249 38.0959 1.11326L39.9064 -1.27888C39.2733 -1.75805 38.5075 -1.95776 37.8051 -1.95776C37.1027 -1.95776 36.3369 -1.75805 35.7038 -1.27888L37.5143 1.11326ZM32.1038 5.20804L37.5142 1.11326L35.7038 -1.27888L30.2934 2.8159L32.1038 5.20804ZM24.8829 1.11326L30.2934 5.20804L32.1038 2.8159L26.6933 -1.27888L24.8829 1.11326ZM48.2412 18.7914C48.2398 18.7904 48.2387 18.7896 48.2396 18.7903L50.0556 16.4023C50.0553 16.4021 50.0529 16.4003 50.0503 16.3983L48.2412 18.7914ZM48.2447 18.7941L48.2454 18.7947L50.0513 16.3991L50.0506 16.3985L48.2447 18.7941ZM48.2406 18.791C48.2513 18.7991 48.1409 18.7071 48.1411 18.4994C48.1414 18.2917 48.252 18.2005 48.2405 18.2092L50.0509 20.6014C50.6991 20.1108 51.14 19.3655 51.1411 18.5034C51.1423 17.6413 50.7034 16.8947 50.0561 16.4027L48.2406 18.791ZM48.2457 18.2053C48.2404 18.2092 48.2362 18.2125 48.2335 18.2145C48.2322 18.2155 48.2311 18.2164 48.2304 18.2169C48.2301 18.2172 48.2298 18.2174 48.2297 18.2175C48.2296 18.2176 48.2295 18.2176 48.2295 18.2176C48.2294 18.2177 48.2294 18.2177 48.2294 18.2177C48.2294 18.2177 48.2294 18.2177 48.2294 18.2177C48.2294 18.2177 48.2294 18.2177 48.2294 18.2177C48.229 18.218 48.2311 18.2164 48.2334 18.2146C48.2361 18.2126 48.2403 18.2094 48.2455 18.2055L50.0455 20.6055C50.0508 20.6015 50.055 20.5983 50.0577 20.5962C50.059 20.5952 50.0601 20.5944 50.0608 20.5939C50.0611 20.5936 50.0614 20.5934 50.0615 20.5933C50.0616 20.5932 50.0617 20.5931 50.0617 20.5931C50.0618 20.5931 50.0618 20.5931 50.0618 20.5931C50.0618 20.5931 50.0618 20.5931 50.0618 20.5931C50.0618 20.593 50.0618 20.593 50.0618 20.593C50.0622 20.5928 50.0601 20.5943 50.0578 20.5962C50.0552 20.5982 50.0509 20.6014 50.0457 20.6053L48.2457 18.2053ZM48.2407 18.2091L48.2349 18.2134L50.0446 20.6061L50.0503 20.6018L48.2407 18.2091ZM48.2346 18.2137L32.7183 29.9568L34.5287 32.349L50.045 20.6058L48.2346 18.2137ZM32.7113 32.3437L36.9002 35.5526L38.7246 33.1711L34.5357 29.9622L32.7113 32.3437ZM38.7176 35.5579L59.6758 19.6961L57.8653 17.304L36.9072 33.1657L38.7176 35.5579ZM59.6758 17.304L38.7103 1.43678L36.8999 3.82891L57.8653 19.6961L59.6758 17.304ZM36.8999 1.43678L32.72 4.60019L34.5305 6.99233L38.7103 3.82891L36.8999 1.43678ZM32.7175 6.99039L48.2379 18.789L50.0535 16.4007L34.533 4.60213L32.7175 6.99039ZM46.4625 17.3039L25.4973 1.43678L23.6868 3.82891L44.6521 19.696L46.4625 17.3039ZM23.6868 1.43678L2.72138 17.304L4.53182 19.6961L25.4973 3.82891L23.6868 1.43678ZM2.72138 19.6961L23.6868 35.5634L25.4973 33.1712L4.53182 17.304L2.72138 19.6961ZM25.4973 35.5634L30.8645 31.5013L29.054 29.1092L23.6868 33.1712L25.4973 35.5634ZM30.943 31.4377C30.9427 31.4379 30.9433 31.4373 30.9449 31.4361L29.1349 29.0437C29.0803 29.085 29.0272 29.128 28.9755 29.1729L30.943 31.4377ZM30.9449 31.4361L46.4623 19.6961L44.6523 17.3037L29.1349 29.0437L30.9449 31.4361Z" fill="white"/>
</svg>
