<svg width="141" height="58" viewBox="0 0 141 58" fill="none" xmlns="http://www.w3.org/2000/svg">
<rect x="0.5" y="0.5" width="140" height="57" rx="3.5" fill="white"/>
<g clip-path="url(#clip0_508_2377)">
<path d="M69.8841 32.2754C70.9951 32.2714 73.4241 32.2624 73.3961 30.7174C73.3691 29.1374 71.0361 29.2324 69.8991 29.2794C69.7721 29.2844 69.6591 29.2894 69.5671 29.2904L69.6191 32.2774C69.6941 32.2754 69.7841 32.2754 69.8841 32.2754ZM69.7661 27.9224C70.6931 27.9214 72.7161 27.9194 72.6921 26.5144C72.6661 25.0774 70.7231 25.1624 69.7741 25.2044C69.6671 25.2094 69.5741 25.2134 69.4961 25.2144L69.5431 27.9234L69.7661 27.9224Z" fill="#7E7E7E"/>
<path fill-rule="evenodd" clip-rule="evenodd" d="M67.5952 40.6415C74.0252 42.2445 80.5372 38.3315 82.1402 31.9035C83.7432 25.4745 79.8292 18.9625 73.3992 17.3605C66.9732 15.7565 60.4612 19.6705 58.8592 26.1005C57.2562 32.5285 61.1692 39.0405 67.5962 40.6425L67.5952 40.6415ZM71.8772 23.6215C73.6312 23.7455 75.0272 24.2595 75.2102 25.8635C75.3462 27.0375 74.8662 27.7525 74.0872 28.1665C75.3872 28.4545 76.2122 29.2095 76.0822 30.9375C75.9212 33.0825 74.3342 33.6855 72.0562 33.8555L72.0942 36.1055L70.7382 36.1305L70.6992 33.9105C70.3482 33.9165 69.9882 33.9205 69.6152 33.9185L69.6552 36.1485L68.2992 36.1725L68.2592 33.9185L67.8762 33.9215C67.6822 33.9225 67.4862 33.9235 67.2902 33.9275L65.5242 33.9575L65.7652 32.3335C65.7652 32.3335 66.7692 32.3315 66.7512 32.3165C67.1352 32.3085 67.2322 32.0315 67.2532 31.8575L67.1922 28.3005L67.2892 28.2985H67.3352C67.2874 28.293 67.2393 28.2907 67.1912 28.2915L67.1472 25.7515C67.0902 25.4775 66.9062 25.1615 66.3572 25.1715C66.3722 25.1515 65.3712 25.1885 65.3712 25.1885L65.3452 23.7405L67.2172 23.7085V23.7155C67.4982 23.7105 67.7872 23.7005 68.0802 23.6895L68.0422 21.4605L69.3982 21.4375L69.4362 23.6215C69.7982 23.6085 70.1622 23.5945 70.5192 23.5885L70.4812 21.4185L71.8382 21.3945L71.8772 23.6235V23.6215Z" fill="#7E7E7E"/>
</g>
<rect x="0.5" y="0.5" width="140" height="57" rx="3.5" stroke="black"/>
<defs>
<clipPath id="clip0_508_2377">
<rect width="24" height="24" fill="white" transform="translate(58.5 17)"/>
</clipPath>
</defs>
</svg>
