<svg width="141" height="58" viewBox="0 0 141 58" fill="none" xmlns="http://www.w3.org/2000/svg">
<rect x="0.5" y="0.5" width="140" height="57" rx="3.5" fill="white"/>
<g clip-path="url(#clip0_577_4109)">
<path d="M69.8841 32.2749C70.9951 32.2709 73.4241 32.2619 73.3961 30.7169C73.3691 29.1369 71.0361 29.2319 69.8991 29.2789C69.7721 29.2839 69.6591 29.2889 69.5671 29.2899L69.6191 32.2769C69.6941 32.2749 69.7841 32.2749 69.8841 32.2749ZM69.7661 27.9219C70.6931 27.9209 72.7161 27.9189 72.6921 26.5139C72.6661 25.0769 70.7231 25.1619 69.7741 25.2039C69.6671 25.2089 69.5741 25.2129 69.4961 25.2139L69.5431 27.9229L69.7661 27.9219Z" fill="#7E7E7E"/>
<path fill-rule="evenodd" clip-rule="evenodd" d="M67.5952 40.641C74.0252 42.244 80.5372 38.331 82.1402 31.903C83.7432 25.474 79.8292 18.962 73.3992 17.36C66.9732 15.756 60.4612 19.67 58.8592 26.1C57.2562 32.528 61.1692 39.04 67.5962 40.642L67.5952 40.641ZM71.8772 23.621C73.6312 23.745 75.0272 24.259 75.2102 25.863C75.3462 27.037 74.8662 27.752 74.0872 28.166C75.3872 28.454 76.2122 29.209 76.0822 30.937C75.9212 33.082 74.3342 33.685 72.0562 33.855L72.0942 36.105L70.7382 36.13L70.6992 33.91C70.3482 33.916 69.9882 33.92 69.6152 33.918L69.6552 36.148L68.2992 36.172L68.2592 33.918L67.8762 33.921C67.6822 33.922 67.4862 33.923 67.2902 33.927L65.5242 33.957L65.7652 32.333C65.7652 32.333 66.7692 32.331 66.7512 32.316C67.1352 32.308 67.2322 32.031 67.2532 31.857L67.1922 28.3L67.2892 28.298H67.3352C67.2874 28.2925 67.2393 28.2902 67.1912 28.291L67.1472 25.751C67.0902 25.477 66.9062 25.161 66.3572 25.171C66.3722 25.151 65.3712 25.188 65.3712 25.188L65.3452 23.74L67.2172 23.708V23.715C67.4982 23.71 67.7872 23.7 68.0802 23.689L68.0422 21.46L69.3982 21.437L69.4362 23.621C69.7982 23.608 70.1622 23.594 70.5192 23.588L70.4812 21.418L71.8382 21.394L71.8772 23.623V23.621Z" fill="#7E7E7E"/>
</g>
<rect x="0.5" y="0.5" width="140" height="57" rx="3.5" stroke="black"/>
<defs>
<clipPath id="clip0_577_4109">
<rect width="24" height="24" fill="white" transform="translate(58.5 17)"/>
</clipPath>
</defs>
</svg>
