<svg width="19" height="23" viewBox="0 0 19 23" fill="none" xmlns="http://www.w3.org/2000/svg">
<path fill-rule="evenodd" clip-rule="evenodd" d="M8.90489 17.8904C7.87543 18.8977 6.25314 18.8791 5.24564 17.8344C4.21982 16.7707 4.21982 15.0461 5.24564 13.9823L13.4183 5.50787C13.6234 5.29513 13.9561 5.29513 14.1612 5.50787C14.3664 5.72061 14.3664 6.06553 14.1612 6.27828L5.98861 14.7527C5.37312 15.391 5.37312 16.4257 5.98861 17.064C6.6041 17.7022 7.60201 17.7022 8.2175 17.064L16.3901 8.5895C17.8263 7.1003 17.8263 4.68584 16.3901 3.19665C14.954 1.70746 12.6255 1.70746 11.1894 3.19665L3.01675 11.6711C0.759947 14.0113 0.759947 17.8054 3.01675 20.1456C5.27355 22.4858 8.93256 22.4858 11.1894 20.1456L17.876 13.2119C18.0812 12.9992 18.4138 12.9992 18.619 13.2119C18.8242 13.4247 18.8242 13.7696 18.619 13.9823L11.9323 20.916C9.26519 23.6816 4.94092 23.6816 2.27379 20.916C-0.375062 18.1693 -0.39322 13.7278 2.21931 10.9578L10.4464 2.42624C12.2929 0.511565 15.2866 0.511565 17.1331 2.42624C18.9796 4.34092 18.9796 7.44522 17.1331 9.3599L8.90569 17.8912L8.90489 17.8904Z" fill="#92929D"/>
</svg>
