<svg width="19" height="23" viewBox="0 0 19 23" fill="none" xmlns="http://www.w3.org/2000/svg">
<path fill-rule="evenodd" clip-rule="evenodd" d="M8.97691 17.8904C7.9936 18.8977 6.44404 18.8791 5.48171 17.8344C4.50188 16.7707 4.50188 15.0461 5.48171 13.9823L13.2879 5.50787C13.4839 5.29513 13.8016 5.29513 13.9976 5.50787C14.1935 5.72061 14.1935 6.06553 13.9976 6.27828L6.19137 14.7527C5.60347 15.391 5.60347 16.4257 6.19137 17.064C6.77927 17.7022 7.73244 17.7022 8.32033 17.064L16.1265 8.5895C17.4983 7.1003 17.4983 4.68584 16.1265 3.19665C14.7548 1.70746 12.5307 1.70746 11.159 3.19665L3.35275 11.6711C1.19712 14.0113 1.19712 17.8054 3.35275 20.1456C5.50837 22.4858 9.00333 22.4858 11.159 20.1456L17.5459 13.2119C17.7418 12.9992 18.0595 12.9992 18.2555 13.2119C18.4515 13.4247 18.4515 13.7696 18.2555 13.9823L11.8686 20.916C9.32106 23.6816 5.19065 23.6816 2.64309 20.916C0.112997 18.1693 0.0956522 13.7278 2.59106 10.9578L10.4493 2.42624C12.213 0.511565 15.0725 0.511565 16.8362 2.42624C18.5999 4.34092 18.5999 7.44522 16.8362 9.3599L8.97767 17.8912L8.97691 17.8904Z" fill="#92929D"/>
</svg>
