<svg width="18" height="23" viewBox="0 0 18 23" fill="none" xmlns="http://www.w3.org/2000/svg">
<path fill-rule="evenodd" clip-rule="evenodd" d="M8.47496 17.8904C7.49165 18.8977 5.94209 18.8791 4.97976 17.8344C3.99993 16.7707 3.99993 15.0461 4.97976 13.9823L12.786 5.50787C12.9819 5.29513 13.2997 5.29513 13.4956 5.50787C13.6916 5.72061 13.6916 6.06553 13.4956 6.27828L5.68941 14.7527C5.10152 15.391 5.10152 16.4257 5.68941 17.064C6.27731 17.7022 7.23048 17.7022 7.81838 17.064L15.6246 8.5895C16.9964 7.1003 16.9964 4.68584 15.6246 3.19665C14.2528 1.70746 12.0288 1.70746 10.657 3.19665L2.85079 11.6711C0.695167 14.0113 0.695167 17.8054 2.85079 20.1456C5.00642 22.4858 8.50138 22.4858 10.657 20.1456L17.0439 13.2119C17.2399 12.9992 17.5576 12.9992 17.7536 13.2119C17.9495 13.4247 17.9495 13.7696 17.7536 13.9823L11.3667 20.916C8.8191 23.6816 4.68869 23.6816 2.14114 20.916C-0.388957 18.1693 -0.406301 13.7278 2.0891 10.9578L9.94735 2.42624C11.711 0.511565 14.5706 0.511565 16.3342 2.42624C18.0979 4.34092 18.0979 7.44522 16.3342 9.3599L8.47571 17.8912L8.47496 17.8904Z" fill="#92929D"/>
</svg>
