<svg width="25" height="24" viewBox="0 0 25 24" fill="none" xmlns="http://www.w3.org/2000/svg">
<path fill-rule="evenodd" clip-rule="evenodd" d="M8.5332 4H16.5332V2H18.5332V4H19.5332C20.0636 4 20.5723 4.21071 20.9474 4.58579C21.3225 4.96086 21.5332 5.46957 21.5332 6V20C21.5332 20.5304 21.3225 21.0391 20.9474 21.4142C20.5723 21.7893 20.0636 22 19.5332 22H5.5332C5.00277 22 4.49406 21.7893 4.11899 21.4142C3.74392 21.0391 3.5332 20.5304 3.5332 20V6C3.5332 5.46957 3.74392 4.96086 4.11899 4.58579C4.49406 4.21071 5.00277 4 5.5332 4H6.5332V2H8.5332V4ZM5.5332 8V20H19.5332V8H5.5332ZM7.5332 11H9.5332V13H7.5332V11ZM11.5332 11H13.5332V13H11.5332V11ZM15.5332 11H17.5332V13H15.5332V11ZM15.5332 15H17.5332V17H15.5332V15ZM11.5332 15H13.5332V17H11.5332V15ZM7.5332 15H9.5332V17H7.5332V15Z" fill="#9A9A9A"/>
</svg>
