<svg width="25" height="24" viewBox="0 0 25 24" fill="none" xmlns="http://www.w3.org/2000/svg">
<path fill-rule="evenodd" clip-rule="evenodd" d="M8.03125 4H16.0312V2H18.0312V4H19.0312C19.5617 4 20.0704 4.21071 20.4455 4.58579C20.8205 4.96086 21.0312 5.46957 21.0312 6V20C21.0312 20.5304 20.8205 21.0391 20.4455 21.4142C20.0704 21.7893 19.5617 22 19.0312 22H5.03125C4.50082 22 3.99211 21.7893 3.61704 21.4142C3.24196 21.0391 3.03125 20.5304 3.03125 20V6C3.03125 5.46957 3.24196 4.96086 3.61704 4.58579C3.99211 4.21071 4.50082 4 5.03125 4H6.03125V2H8.03125V4ZM5.03125 8V20H19.0312V8H5.03125ZM7.03125 11H9.03125V13H7.03125V11ZM11.0312 11H13.0312V13H11.0312V11ZM15.0312 11H17.0312V13H15.0312V11ZM15.0312 15H17.0312V17H15.0312V15ZM11.0312 15H13.0312V17H11.0312V15ZM7.03125 15H9.03125V17H7.03125V15Z" fill="#9A9A9A"/>
</svg>
