<svg width="39" height="25" viewBox="0 0 39 25" fill="none" xmlns="http://www.w3.org/2000/svg">
<path fill-rule="evenodd" clip-rule="evenodd" d="M15.9804 18.2841L10.7743 21.6848C9.59604 22.4545 7.90066 21.7355 7.89822 20.4701L7.89375 18.1541C5.46973 17.656 3.67578 15.7858 3.67578 13.564V7.72006C3.67578 5.11409 6.14051 3 9.18313 3H21.5747C24.6173 3 27.082 5.11409 27.082 7.72006V13.564C27.082 16.17 24.6173 18.2841 21.5747 18.2841H15.9804ZM10.2401 19.5183L14.8766 16.4896C15.0807 16.3563 15.3305 16.2841 15.5874 16.2841H21.5778C23.3257 16.2841 24.7445 15.0671 24.7445 13.564V7.72006C24.7445 6.21696 23.3257 5 21.5778 5H9.18626C7.43833 5 6.01953 6.21696 6.01953 7.72006V13.564C6.01953 15.0388 7.3877 16.243 9.09761 16.2831C9.73046 16.2979 10.2348 16.7401 10.2358 17.281L10.2401 19.5183Z" fill="#92929D"/>
</svg>
