<svg width="41" height="30" viewBox="0 0 41 30" fill="none" xmlns="http://www.w3.org/2000/svg">
<path d="M20.5002 5.31006C18.8263 5.31006 17.5463 6.25406 17.5463 7.48852V11.8454C17.5463 13.0799 18.8263 14.0239 20.5002 14.0239H26.4079L30.3463 16.9285V14.0239C32.0202 14.0239 33.3002 13.0799 33.3002 11.8454V7.48852C33.3002 6.25406 32.0202 5.31006 30.3463 5.31006H20.5002ZM24.6238 7.48852H26.3153L27.9774 11.8454H26.5004L26.0997 10.7562H24.6228L24.2545 11.8454H22.9617L24.6238 7.48852ZM25.4233 8.21467C25.3248 8.50514 25.2145 8.8595 25.1151 9.07735L24.8394 10.0301H26.0081L25.7305 9.07662C25.5345 8.8595 25.4233 8.50514 25.4233 8.21467ZM10.654 12.5716C8.9802 12.5716 7.7002 13.5156 7.7002 14.7501V19.107C7.7002 20.3414 8.9802 21.2854 10.654 21.2854V24.1901L14.5925 21.2854H20.5002C22.174 21.2854 23.454 20.3414 23.454 19.107V14.7501H20.5002C18.6294 14.7501 17.1466 13.8061 16.6543 12.5716H10.654ZM15.1774 14.6818C16.8512 14.6818 17.6389 15.6984 17.6389 16.8603C17.6389 17.8769 17.1653 18.5217 16.3776 18.8122C16.7715 18.9574 17.2382 19.0344 17.7305 19.107L17.3622 19.8331C16.673 19.6879 15.9582 19.4613 15.2689 19.2428C15.1705 19.1702 14.9982 19.1752 14.8997 19.1752C13.7182 19.1026 12.6233 18.3808 12.6233 16.9285C12.6233 15.6941 13.602 14.6818 15.1774 14.6818ZM15.1774 15.4762C14.3897 15.4762 14.0076 16.1298 14.0076 16.9285C14.0076 17.7999 14.3897 18.3808 15.1774 18.3808C15.9651 18.3808 16.3766 17.7273 16.3766 16.9285C16.3766 16.1298 15.9651 15.4762 15.1774 15.4762Z" fill="#2B3135"/>
</svg>
