<svg width="14" height="14" viewBox="0 0 14 14" fill="none" xmlns="http://www.w3.org/2000/svg">
<path fill-rule="evenodd" clip-rule="evenodd" d="M13.8789 13.0345L10.476 9.76834C11.3888 8.76116 11.9415 7.44697 11.9415 6.01059C11.9415 2.84873 9.26187 0.279785 5.97082 0.279785C2.67653 0.279785 0 2.85174 0 6.01059C0 9.16942 2.67964 11.7412 5.97082 11.7412C7.46733 11.7412 8.83661 11.2108 9.88603 10.3345L13.289 13.6008C13.3697 13.6781 13.4783 13.7198 13.584 13.7198C13.6895 13.7198 13.7982 13.6811 13.8789 13.6008C14.0404 13.4458 14.0404 13.1895 13.8789 13.0345ZM0.835379 6.01059C0.835379 3.29281 3.13912 1.08444 5.9676 1.08444C8.79939 1.08444 11.1 3.29583 11.1 6.01059C11.1 8.7255 8.79939 10.9396 5.9676 10.9396C3.13912 10.9396 0.835379 8.72835 0.835379 6.01059Z" fill="#898080"/>
</svg>
