<svg width="41" height="30" viewBox="0 0 41 30" fill="none" xmlns="http://www.w3.org/2000/svg">
<path d="M4.5 10.3447H23.67V12.8621H4.5V10.3447ZM4.5 7.82739H23.67V5.31006H4.5V7.82739ZM4.5 17.8967H16.6991V15.3794H4.5V17.8967ZM30.6583 13.9571L31.8957 13.0634C32.0569 12.9468 32.2484 12.8542 32.4592 12.791C32.67 12.7279 32.896 12.6954 33.1243 12.6954C33.3525 12.6954 33.5785 12.7279 33.7894 12.791C34.0002 12.8542 34.1917 12.9468 34.3529 13.0634L35.5903 13.9571C36.2699 14.448 36.2699 15.2409 35.5903 15.7318L34.3529 16.6255L30.6583 13.9571ZM29.421 14.8508L20.1845 21.5217V24.1901H23.8791L33.1156 17.5191L29.421 14.8508Z" fill="#2B3135"/>
</svg>
