<svg width="1246" height="565" viewBox="0 0 1246 565" fill="none" xmlns="http://www.w3.org/2000/svg">
<path d="M2 521.823C2 521.823 8.69865 494.379 53.6708 406.561C53.6708 406.561 67.0669 354.419 102.47 447.726C102.47 447.726 161.795 584.943 251.74 288.554C251.74 288.554 285.23 206.226 305.324 532.801C305.324 532.801 324.461 650.806 352.21 420.283C352.21 420.283 369.434 189.759 458.421 412.05C458.421 412.05 500.522 516.335 541.668 247.39C541.668 247.39 560.805 104.685 606.733 228.18C606.733 228.18 639.267 332.464 676.584 99.197C676.584 99.197 746.435 -219.146 776.097 390.096C776.097 390.096 795.234 823.698 960.771 167.805C960.771 167.805 1015.31 -169.748 1064.11 118.407C1064.11 118.407 1096.64 425.771 1177.02 302.277C1177.02 302.277 1221.04 236.412 1244 387.35" stroke="#808080" stroke-width="3"/>
</svg>
