<svg width="1246" height="484" viewBox="0 0 1246 484" fill="none" xmlns="http://www.w3.org/2000/svg">
<path d="M1244 446.768C1244 446.768 1237.3 423.287 1192.33 348.149C1192.33 348.149 1178.93 303.535 1143.53 383.369C1143.53 383.369 1084.2 500.774 994.26 247.18C994.26 247.18 960.77 176.739 940.676 456.161C940.676 456.161 921.539 557.128 893.79 359.889C893.79 359.889 876.566 162.65 787.579 352.845C787.579 352.845 745.478 442.072 704.332 211.959C704.332 211.959 685.195 89.8585 639.267 195.523C639.267 195.523 606.733 284.75 569.416 85.1632C569.416 85.1632 499.565 -187.216 469.903 334.061C469.903 334.061 450.766 705.057 285.229 143.865C285.229 143.865 230.689 -144.95 181.889 101.6C181.889 101.6 149.355 364.585 68.979 258.921C68.979 258.921 24.9641 202.567 2 331.712" stroke="#808080" stroke-width="3"/>
</svg>
