<svg width="1451" height="206" viewBox="0 0 1451 206" fill="none" xmlns="http://www.w3.org/2000/svg">
<mask id="path-1-inside-1_601_4691" fill="white">
<path fill-rule="evenodd" clip-rule="evenodd" d="M0.292082 190C0.292082 190 8.11147 180 60.6079 148C60.6079 148 76.2452 129 117.571 163C117.571 163 186.822 213 291.815 104.999C291.815 104.999 330.909 74.9999 354.365 194C354.365 194 376.704 237 409.095 153C409.095 153 429.2 68.9997 533.076 150C533.076 150 582.221 188 630.25 89.9997C630.25 89.9997 652.59 37.9996 706.202 82.9997C706.202 82.9997 744.179 121 787.74 35.9999C787.74 35.9999 869.277 -80.0005 903.901 142C903.901 142 926.241 300 1119.47 60.9998C1119.47 60.9998 1183.14 -62.0003 1240.1 42.9998C1240.1 42.9998 1278.08 155 1371.9 110C1371.9 110 1423.28 85.9995 1450.09 141"/>
</mask>
<path fill-rule="evenodd" clip-rule="evenodd" d="M0.292082 190C0.292082 190 8.11147 180 60.6079 148C60.6079 148 76.2452 129 117.571 163C117.571 163 186.822 213 291.815 104.999C291.815 104.999 330.909 74.9999 354.365 194C354.365 194 376.704 237 409.095 153C409.095 153 429.2 68.9997 533.076 150C533.076 150 582.221 188 630.25 89.9997C630.25 89.9997 652.59 37.9996 706.202 82.9997C706.202 82.9997 744.179 121 787.74 35.9999C787.74 35.9999 869.277 -80.0005 903.901 142C903.901 142 926.241 300 1119.47 60.9998C1119.47 60.9998 1183.14 -62.0003 1240.1 42.9998C1240.1 42.9998 1278.08 155 1371.9 110C1371.9 110 1423.28 85.9995 1450.09 141" fill="black" fill-opacity="0.01"/>
<path d="M60.6079 148L62.1693 150.561L62.6021 150.298L62.9242 149.906L60.6079 148ZM117.571 163L115.665 165.316L115.738 165.376L115.815 165.432L117.571 163ZM291.815 104.999L289.989 102.619L289.816 102.752L289.664 102.908L291.815 104.999ZM354.365 194L351.421 194.58L351.504 195.002L351.702 195.383L354.365 194ZM409.095 153L411.894 154.079L411.966 153.893L412.012 153.698L409.095 153ZM533.076 150L531.231 152.366L531.241 152.373L533.076 150ZM630.25 89.9997L632.944 91.3199L632.977 91.2526L633.007 91.1838L630.25 89.9997ZM706.202 82.9997L708.324 80.8791L708.231 80.7863L708.131 80.7019L706.202 82.9997ZM787.74 35.9999L785.285 34.2747L785.165 34.4457L785.07 34.6317L787.74 35.9999ZM903.901 142L906.872 141.58L906.869 141.559L906.866 141.538L903.901 142ZM1119.47 60.9998L1121.81 62.886L1122 62.6492L1122.14 62.3788L1119.47 60.9998ZM1240.1 42.9998L1242.94 42.0365L1242.86 41.7941L1242.74 41.5692L1240.1 42.9998ZM1371.9 110L1370.63 107.282L1370.62 107.288L1370.61 107.295L1371.9 110ZM0.292082 190C2.65538 191.848 2.65387 191.85 2.65239 191.851C2.65194 191.852 2.6505 191.854 2.6496 191.855C2.6478 191.857 2.64613 191.859 2.64459 191.861C2.6415 191.865 2.63894 191.868 2.63691 191.871C2.63285 191.876 2.63093 191.878 2.63129 191.878C2.63204 191.877 2.64187 191.865 2.66201 191.842C2.70235 191.795 2.78339 191.704 2.91467 191.564C3.17766 191.285 3.63842 190.818 4.37177 190.139C5.84011 188.78 8.38209 186.591 12.5839 183.384C20.9907 176.969 35.9756 166.528 62.1693 150.561L59.0464 145.438C32.7438 161.471 17.5708 172.031 8.94376 178.615C4.62867 181.908 1.93477 184.219 0.296468 185.735C-0.523514 186.494 -1.08377 187.058 -1.45347 187.451C-1.63853 187.647 -1.77675 187.802 -1.87658 187.917C-1.92653 187.975 -1.96702 188.023 -1.99906 188.062C-2.01509 188.082 -2.02903 188.099 -2.04101 188.114C-2.047 188.121 -2.0525 188.128 -2.05753 188.134C-2.06004 188.138 -2.06244 188.141 -2.06472 188.144C-2.06586 188.145 -2.06748 188.147 -2.06805 188.148C-2.06965 188.15 -2.07121 188.152 0.292082 190ZM60.6079 148C62.9242 149.906 62.9223 149.909 62.9204 149.911C62.9198 149.912 62.9179 149.914 62.9168 149.915C62.9146 149.918 62.9125 149.92 62.9107 149.923C62.9071 149.927 62.9043 149.93 62.9025 149.932C62.8988 149.937 62.8987 149.937 62.9021 149.933C62.909 149.925 62.9303 149.901 62.9661 149.864C63.0377 149.788 63.1673 149.658 63.3568 149.489C63.7361 149.151 64.353 148.66 65.2251 148.144C66.9562 147.119 69.7387 145.967 73.7573 145.745C81.7935 145.302 95.3135 148.572 115.665 165.316L119.477 160.683C98.503 143.427 83.5413 139.197 73.4273 139.754C68.3708 140.033 64.6611 141.505 62.1688 142.981C60.9291 143.714 60.0016 144.442 59.3642 145.01C59.0455 145.295 58.7987 145.539 58.6211 145.726C58.5323 145.819 58.4607 145.898 58.4059 145.96C58.3785 145.991 58.3553 146.018 58.3363 146.04C58.3267 146.051 58.3182 146.061 58.3108 146.07C58.3071 146.075 58.3036 146.079 58.3004 146.083C58.2988 146.085 58.2966 146.087 58.2958 146.088C58.2936 146.091 58.2915 146.093 60.6079 148ZM117.571 163C115.815 165.432 115.817 165.434 115.82 165.435C115.821 165.436 115.824 165.438 115.827 165.44C115.832 165.444 115.837 165.448 115.845 165.453C115.859 165.463 115.877 165.476 115.899 165.492C115.945 165.523 116.007 165.566 116.086 165.62C116.244 165.728 116.469 165.878 116.761 166.064C117.345 166.437 118.196 166.954 119.304 167.565C121.521 168.786 124.773 170.382 128.994 171.939C137.44 175.055 149.764 178.012 165.419 177.498C196.806 176.467 241.064 161.509 293.966 107.091L289.664 102.908C237.574 156.491 194.71 170.532 165.222 171.501C150.441 171.987 138.89 169.194 131.071 166.31C127.159 164.867 124.18 163.401 122.2 162.309C121.21 161.764 120.469 161.313 119.988 161.005C119.747 160.852 119.571 160.734 119.46 160.659C119.405 160.622 119.366 160.595 119.344 160.579C119.333 160.571 119.326 160.566 119.323 160.564C119.322 160.563 119.322 160.563 119.322 160.564C119.323 160.564 119.324 160.565 119.324 160.565C119.326 160.566 119.327 160.567 117.571 163ZM291.815 104.999C293.642 107.379 293.639 107.381 293.637 107.383C293.636 107.383 293.634 107.385 293.633 107.386C293.631 107.388 293.629 107.389 293.628 107.39C293.626 107.392 293.626 107.392 293.628 107.39C293.632 107.387 293.645 107.377 293.667 107.362C293.711 107.33 293.789 107.276 293.9 107.204C294.122 107.059 294.473 106.843 294.94 106.596C295.877 106.102 297.258 105.498 298.98 105.091C302.369 104.29 307.186 104.217 312.788 107.469C318.466 110.765 325.208 117.627 332.013 131.232C338.814 144.83 345.588 164.985 351.421 194.58L357.308 193.42C351.414 163.515 344.505 142.794 337.379 128.548C330.258 114.31 322.828 106.359 315.8 102.28C308.698 98.1571 302.275 98.1467 297.6 99.2519C295.291 99.7977 293.434 100.608 292.142 101.289C291.494 101.631 290.982 101.943 290.62 102.18C290.439 102.298 290.295 102.397 290.189 102.472C290.136 102.51 290.093 102.542 290.06 102.566C290.043 102.579 290.029 102.589 290.017 102.598C290.011 102.603 290.006 102.607 290.001 102.61C289.999 102.612 289.996 102.614 289.995 102.615C289.992 102.617 289.989 102.619 291.815 104.999ZM354.365 194C351.702 195.383 351.703 195.385 351.705 195.387C351.705 195.388 351.706 195.39 351.707 195.392C351.709 195.396 351.711 195.4 351.714 195.405C351.719 195.415 351.726 195.428 351.734 195.443C351.751 195.474 351.772 195.514 351.8 195.564C351.855 195.664 351.932 195.802 352.031 195.972C352.229 196.313 352.517 196.785 352.891 197.347C353.636 198.465 354.743 199.963 356.193 201.48C359.042 204.459 363.55 207.844 369.505 207.999C375.558 208.156 382.178 204.962 389.159 196.792C396.126 188.639 403.742 175.218 411.894 154.079L406.295 151.92C398.251 172.781 390.929 185.485 384.597 192.895C378.28 200.287 373.242 202.094 369.661 202.001C365.982 201.905 362.881 199.791 360.529 197.332C359.379 196.13 358.488 194.926 357.884 194.02C357.584 193.57 357.36 193.201 357.216 192.952C357.143 192.828 357.091 192.735 357.059 192.677C357.044 192.648 357.033 192.628 357.027 192.618C357.025 192.613 357.023 192.61 357.023 192.61C357.023 192.61 357.023 192.61 357.024 192.611C357.024 192.612 357.025 192.613 357.025 192.614C357.026 192.615 357.027 192.617 354.365 194ZM409.095 153C412.012 153.698 412.012 153.7 412.011 153.701C412.011 153.701 412.011 153.702 412.011 153.702C412.011 153.702 412.011 153.701 412.012 153.699C412.013 153.694 412.016 153.684 412.019 153.67C412.026 153.641 412.039 153.592 412.056 153.525C412.092 153.392 412.148 153.185 412.227 152.912C412.385 152.365 412.635 151.556 412.991 150.545C413.704 148.519 414.838 145.695 416.509 142.547C419.864 136.225 425.298 128.755 433.682 123.693C450.074 113.796 479.637 112.133 531.231 152.366L534.92 147.634C482.639 106.866 450.211 106.704 430.581 118.557C420.955 124.369 414.87 132.837 411.209 139.734C409.372 143.195 408.124 146.301 407.331 148.553C406.935 149.68 406.651 150.596 406.464 151.241C406.371 151.563 406.302 151.818 406.254 151.997C406.231 152.087 406.213 152.158 406.2 152.209C406.193 152.234 406.188 152.255 406.184 152.27C406.183 152.278 406.181 152.285 406.18 152.29C406.179 152.292 406.178 152.295 406.178 152.297C406.177 152.299 406.177 152.301 409.095 153ZM533.076 150C531.241 152.373 531.243 152.375 531.245 152.377C531.246 152.377 531.249 152.379 531.251 152.381C531.255 152.384 531.26 152.388 531.266 152.392C531.277 152.401 531.292 152.412 531.309 152.425C531.344 152.451 531.391 152.486 531.45 152.529C531.568 152.615 531.733 152.733 531.945 152.878C532.368 153.168 532.976 153.565 533.757 154.025C535.318 154.946 537.58 156.126 540.442 157.211C546.167 159.382 554.336 161.184 564.098 159.716C583.767 156.759 608.714 140.759 632.944 91.3199L627.557 88.6794C603.757 137.24 580.117 151.24 563.206 153.783C554.678 155.065 547.559 153.493 542.569 151.601C540.073 150.655 538.119 149.632 536.805 148.857C536.148 148.47 535.654 148.146 535.334 147.927C535.174 147.817 535.057 147.734 534.986 147.682C534.951 147.656 534.926 147.638 534.914 147.629C534.907 147.624 534.904 147.621 534.904 147.621C534.903 147.621 534.904 147.621 534.905 147.622C534.905 147.623 534.907 147.624 534.907 147.624C534.909 147.625 534.911 147.627 533.076 150ZM630.25 89.9997C633.007 91.1838 633.006 91.1852 633.006 91.1864C633.006 91.1865 633.005 91.1876 633.005 91.1878C633.005 91.1884 633.005 91.1882 633.005 91.1872C633.006 91.1853 633.008 91.1802 633.012 91.1722C633.019 91.1562 633.032 91.1282 633.049 91.0887C633.085 91.0099 633.142 90.8854 633.221 90.7199C633.38 90.3887 633.625 89.8939 633.959 89.2712C634.628 88.0243 635.648 86.2741 637.033 84.3028C639.819 80.3392 644 75.5976 649.666 72.1968C655.277 68.8286 662.398 66.7372 671.269 68.0755C680.199 69.4224 691.151 74.2832 704.273 85.2976L708.131 80.7019C694.447 69.2162 682.502 63.7019 672.164 62.1426C661.769 60.5745 653.253 63.0456 646.578 67.0524C639.957 71.0267 635.203 76.4725 632.124 80.8528C630.578 83.0533 629.434 85.0141 628.671 86.4351C628.29 87.1464 628.003 87.7249 627.807 88.1334C627.71 88.3378 627.635 88.4998 627.583 88.615C627.557 88.6726 627.537 88.7185 627.522 88.7521C627.514 88.7689 627.508 88.7826 627.504 88.7932C627.501 88.7985 627.499 88.803 627.498 88.8067C627.497 88.8086 627.496 88.8108 627.496 88.8117C627.495 88.8137 627.494 88.8155 630.25 89.9997ZM706.202 82.9997C704.08 85.1204 704.082 85.1223 704.084 85.1243C704.085 85.1252 704.087 85.1274 704.089 85.1292C704.092 85.1327 704.097 85.1367 704.101 85.1414C704.111 85.1507 704.122 85.1623 704.137 85.176C704.165 85.2036 704.203 85.2399 704.25 85.2844C704.344 85.3734 704.475 85.4951 704.642 85.6446C704.977 85.9434 705.459 86.3539 706.078 86.8354C707.316 87.7969 709.117 89.0506 711.418 90.2633C716.02 92.6878 722.692 94.9815 730.861 94.3663C747.358 93.124 768.449 80.2191 790.41 37.3681L785.07 34.6317C763.469 76.7806 743.792 87.3756 730.41 88.3832C723.64 88.893 718.095 86.9992 714.215 84.955C712.276 83.9332 710.769 82.8822 709.76 82.0977C709.256 81.7061 708.879 81.3832 708.636 81.1669C708.515 81.0588 708.428 80.9775 708.375 80.9279C708.349 80.9031 708.332 80.8862 708.323 80.8779C708.319 80.8737 708.317 80.8717 708.317 80.8718C708.317 80.8719 708.318 80.8726 708.319 80.8738C708.319 80.8744 708.321 80.8757 708.321 80.876C708.323 80.8775 708.324 80.8791 706.202 82.9997ZM787.74 35.9999C790.194 37.7251 790.193 37.726 790.193 37.7264C790.193 37.726 790.193 37.726 790.194 37.7251C790.195 37.7234 790.198 37.7199 790.201 37.7147C790.209 37.7044 790.221 37.6872 790.238 37.6634C790.272 37.6158 790.325 37.5419 790.397 37.4432C790.542 37.2458 790.761 36.9497 791.051 36.5688C791.631 35.8066 792.494 34.7062 793.609 33.3772C795.842 30.7152 799.068 27.1568 803.034 23.5681C811.065 16.3012 821.687 9.31757 832.988 8.74592C843.927 8.19261 856.458 13.6305 868.589 33.3527C880.791 53.1913 892.303 87.1009 900.937 142.462L906.866 141.538C898.188 85.8988 886.523 51.0582 873.699 30.2093C860.804 9.2439 846.459 2.05686 832.685 2.75358C819.274 3.43198 807.347 11.5734 799.008 19.1191C794.789 22.9366 791.374 26.7064 789.013 29.521C787.83 30.9303 786.908 32.1053 786.277 32.934C785.961 33.3484 785.718 33.6766 785.552 33.9047C785.469 34.0187 785.404 34.1077 785.36 34.1699C785.338 34.2011 785.32 34.2255 785.308 34.243C785.302 34.2518 785.297 34.2589 785.293 34.2641C785.291 34.2668 785.289 34.2694 785.288 34.2708C785.287 34.273 785.285 34.2747 787.74 35.9999ZM903.901 142C900.931 142.42 900.931 142.423 900.932 142.426C900.932 142.428 900.933 142.432 900.933 142.435C900.934 142.443 900.936 142.453 900.938 142.465C900.941 142.49 900.946 142.524 900.953 142.567C900.966 142.654 900.985 142.777 901.011 142.935C901.064 143.25 901.143 143.705 901.253 144.281C901.474 145.433 901.822 147.074 902.333 149.067C903.353 153.047 905.036 158.466 907.687 164.21C912.958 175.628 922.282 188.794 938.301 193.979C954.375 199.181 976.242 196.05 1005.89 177.008C1035.55 157.962 1073.41 122.744 1121.81 62.886L1117.14 59.1137C1068.92 118.755 1031.53 153.413 1002.65 171.96C973.762 190.512 953.815 192.693 940.149 188.271C926.429 183.83 918.092 172.434 913.135 161.696C910.673 156.362 909.101 151.304 908.145 147.577C907.668 145.717 907.346 144.197 907.146 143.151C907.045 142.628 906.975 142.225 906.931 141.957C906.909 141.823 906.894 141.724 906.884 141.66C906.879 141.628 906.876 141.606 906.874 141.592C906.873 141.585 906.872 141.581 906.872 141.579C906.872 141.578 906.872 141.578 906.872 141.578C906.872 141.579 906.872 141.58 903.901 142ZM1119.47 60.9998C1122.14 62.3788 1122.14 62.3793 1122.14 62.3793C1122.14 62.3787 1122.14 62.3782 1122.14 62.377C1122.14 62.3745 1122.14 62.3702 1122.15 62.364C1122.15 62.3517 1122.16 62.332 1122.18 62.3052C1122.2 62.2516 1122.25 62.1695 1122.31 62.06C1122.42 61.8411 1122.6 61.5133 1122.83 61.0871C1123.3 60.2347 1124 58.9897 1124.91 57.4373C1126.73 54.3312 1129.4 50.0025 1132.78 45.1312C1139.56 35.3515 1149.09 23.5465 1160.25 15.0074C1171.43 6.45387 1183.81 1.49159 1196.55 4.43818C1209.31 7.3924 1223.41 18.5156 1237.47 44.4304L1242.74 41.5692C1228.32 14.9839 1213.09 2.10715 1197.9 -1.4074C1182.68 -4.92956 1168.46 1.17066 1156.6 10.2421C1144.73 19.3281 1134.78 31.7106 1127.85 41.7121C1124.36 46.7315 1121.61 51.1919 1119.73 54.4021C1118.79 56.008 1118.06 57.303 1117.57 58.2011C1117.33 58.6502 1117.14 59.0002 1117.01 59.2403C1116.95 59.3604 1116.9 59.4531 1116.86 59.5169C1116.85 59.5488 1116.83 59.5736 1116.82 59.5909C1116.82 59.5996 1116.82 59.6065 1116.81 59.6114C1116.81 59.6139 1116.81 59.6163 1116.81 59.6175C1116.81 59.6194 1116.81 59.6208 1119.47 60.9998ZM1240.1 42.9998C1237.26 43.9632 1237.26 43.9648 1237.26 43.9669C1237.26 43.9681 1237.26 43.9706 1237.27 43.9732C1237.27 43.9782 1237.27 43.9849 1237.27 43.9933C1237.28 44.0102 1237.29 44.0337 1237.3 44.0639C1237.32 44.1242 1237.35 44.211 1237.39 44.3231C1237.47 44.5474 1237.58 44.8733 1237.74 45.2926C1238.05 46.1311 1238.52 47.3436 1239.14 48.8642C1240.39 51.9042 1242.28 56.1814 1244.83 61.1661C1249.94 71.118 1257.77 83.9771 1268.64 95.4393C1279.52 106.904 1293.54 117.077 1311 121.426C1328.52 125.789 1349.2 124.215 1373.2 112.705L1370.61 107.295C1347.69 118.284 1328.44 119.586 1312.45 115.604C1296.41 111.61 1283.34 102.22 1273 91.3103C1262.65 80.3975 1255.12 68.0691 1250.17 58.4272C1247.7 53.6151 1245.89 49.4939 1244.69 46.5847C1244.1 45.1306 1243.65 43.9809 1243.36 43.2007C1243.22 42.8107 1243.11 42.5132 1243.04 42.3164C1243.01 42.218 1242.98 42.1448 1242.97 42.0978C1242.96 42.0743 1242.95 42.0573 1242.95 42.0471C1242.95 42.042 1242.94 42.0385 1242.94 42.0367C1242.94 42.0358 1242.94 42.0358 1242.94 42.0353C1242.94 42.0357 1242.94 42.0365 1240.1 42.9998ZM1371.9 110C1373.17 112.718 1373.17 112.718 1373.17 112.719C1373.17 112.719 1373.17 112.719 1373.17 112.719C1373.17 112.72 1373.17 112.719 1373.17 112.719C1373.17 112.718 1373.18 112.715 1373.19 112.711C1373.2 112.704 1373.23 112.691 1373.27 112.672C1373.36 112.636 1373.48 112.579 1373.66 112.506C1374.01 112.358 1374.53 112.142 1375.22 111.883C1376.6 111.365 1378.61 110.675 1381.12 110.009C1386.15 108.673 1393.08 107.454 1400.78 107.87C1408.46 108.285 1416.88 110.325 1424.95 115.481C1433.01 120.632 1440.9 128.996 1447.39 142.314L1452.79 139.685C1445.87 125.503 1437.29 116.242 1428.18 110.424C1419.08 104.612 1409.62 102.339 1401.11 101.879C1392.61 101.42 1385.02 102.764 1379.58 104.21C1376.85 104.934 1374.64 105.689 1373.11 106.268C1372.34 106.558 1371.73 106.804 1371.32 106.982C1371.11 107.07 1370.94 107.142 1370.83 107.193C1370.77 107.218 1370.73 107.239 1370.69 107.254C1370.68 107.261 1370.66 107.267 1370.65 107.272C1370.65 107.274 1370.65 107.276 1370.64 107.278C1370.64 107.279 1370.64 107.28 1370.64 107.28C1370.64 107.281 1370.63 107.282 1371.9 110Z" fill="#808080" mask="url(#path-1-inside-1_601_4691)"/>
</svg>
