<svg width="1302" height="432" viewBox="0 0 1302 432" fill="none" xmlns="http://www.w3.org/2000/svg">
<path d="M1300 398.585C1300 398.585 1293 377.648 1246 310.649C1246 310.649 1232 270.869 1195 342.054C1195 342.054 1133 446.74 1039 220.619C1039 220.619 1004 157.808 983 406.96C983 406.96 962.999 496.989 934 321.118C934 321.118 915.999 145.246 823 314.837C823 314.837 779 394.398 736 189.214C736 189.214 715.999 80.3405 668 174.558C668 174.558 634 254.119 595 76.1538C595 76.1538 521.999 -166.718 491 298.087C491 298.087 471 628.893 298 128.496C298 128.496 241 -129.03 190 90.8097C190 90.8097 155.999 325.305 71.999 231.088C71.999 231.088 25.9995 180.839 1.99997 295.993" stroke="#808080" stroke-width="3"/>
</svg>
