<svg width="28" height="18" viewBox="0 0 28 18" fill="none" xmlns="http://www.w3.org/2000/svg">
<g clip-path="url(#clip0_577_9751)">
<path d="M14.7643 18H22.1276C23.5248 18 24.6953 17.6518 25.6016 16.9821C26.5078 16.3393 27.0742 15.4821 27.0742 14.5179V4.04464C27.0742 3.08036 26.5078 2.22321 25.6016 1.58036C24.6953 0.9375 23.487 0.5625 22.1276 0.5625H14.7643V2.75893H22.1276C23.1849 2.75893 23.9779 3.32143 23.9779 4.04464V14.5179C23.9779 15.2411 23.1849 15.8304 22.1276 15.8304H14.7643V18ZM0 7.20536V11.3839C0 11.8661 0.566407 12.2679 1.24609 12.2679H8.11849V15.5625C8.11849 15.8571 8.3073 16.0982 8.6849 16.2321C8.83594 16.2589 9.02474 16.2589 9.10027 16.2589C9.36459 16.2589 9.59115 16.2054 9.77995 16.0714L18.6537 9.77679C18.9935 9.53571 18.9557 9.05357 18.6537 8.78571L9.77995 2.51786C9.47787 2.30357 9.10027 2.27679 8.6849 2.35714C8.3073 2.49107 8.11849 2.70536 8.11849 3V6.32143H1.24609C0.566407 6.32143 0 6.72321 0 7.20536Z" fill="#2B3135"/>
</g>
<defs>
<clipPath id="clip0_577_9751">
<rect width="27.0742" height="18" fill="white"/>
</clipPath>
</defs>
</svg>
