<svg width="1269" height="197" viewBox="0 0 1269 197" fill="none" xmlns="http://www.w3.org/2000/svg">
<g clip-path="url(#clip0_598_4785)">
<rect width="1269" height="197" rx="10" fill="white"/>
<path d="M111.754 277.985C110.124 278.005 108.537 278.005 107 277.985H111.754C162.471 277.373 256.111 257.308 259.697 179.661C264.325 79.4815 426.276 120.295 440.158 179.661C454.039 239.027 611.364 155.544 625.246 105.454C639.127 55.3645 782.57 -7.7115 819.588 33.1024C856.605 73.9163 1004.68 31.2476 1004.68 105.454C1004.68 164.82 1091.05 210.581 1134.24 226.041L1162 239.027V277.985H111.754Z" fill="url(#paint0_linear_598_4785)"/>
<path d="M107 277.985C156.357 278.604 255.996 259.805 259.697 179.661C264.325 79.4815 426.276 120.295 440.158 179.661C454.039 239.027 611.364 155.544 625.246 105.454C639.127 55.3645 782.57 -7.7115 819.588 33.1024C856.605 73.9163 1004.68 31.2476 1004.68 105.454C1004.68 164.82 1091.05 210.581 1134.24 226.041L1162 239.027V277.985H107Z" stroke="#84A6FF" stroke-width="2"/>
</g>
<rect x="0.5" y="0.5" width="1268" height="196" rx="9.5" stroke="#C2C2C2"/>
<defs>
<linearGradient id="paint0_linear_598_4785" x1="672.5" y1="-37.5" x2="706" y2="451" gradientUnits="userSpaceOnUse">
<stop stop-color="#087DBF"/>
<stop offset="0.711987" stop-color="white" stop-opacity="0"/>
</linearGradient>
<clipPath id="clip0_598_4785">
<rect width="1269" height="197" rx="10" fill="white"/>
</clipPath>
</defs>
</svg>
