<svg width="612" height="145" viewBox="0 0 612 145" fill="none" xmlns="http://www.w3.org/2000/svg">
<path d="M0 29.5C4.31899 29.5 8.13134 31.427 11.5253 34.652C14.9071 37.8654 17.9221 42.41 20.6907 47.7758C26.2256 58.503 30.9044 72.7759 35.535 86.9392C40.1819 101.152 44.7804 115.255 50.1667 125.811C52.8588 131.087 55.7154 135.41 58.8216 138.403C61.916 141.385 65.2049 143 68.8047 143V145C64.5412 145 60.7805 143.068 57.4338 139.843C54.0988 136.629 51.1227 132.085 48.3852 126.72C42.9124 115.995 38.2642 101.723 33.6341 87.5608C28.9876 73.3491 24.359 59.247 18.9133 48.6929C16.1917 43.4181 13.2981 39.0955 10.1476 36.1019C7.00937 33.1198 3.66586 31.5 0 31.5V29.5ZM68.8047 143C84.0805 143 94.1338 133.684 104.384 124.022C114.542 114.447 124.917 104.5 140.636 104.5V106.5C125.833 106.5 116.019 115.803 105.756 125.478C95.5839 135.066 84.9826 145 68.8047 145V143ZM140.636 104.5C147.925 104.5 152.811 101.512 156.78 96.9528C160.813 92.3205 163.837 86.152 167.415 79.7615C170.957 73.4337 175.005 66.975 181.031 62.1124C187.09 57.224 195.08 54 206.414 54V56C195.503 56 187.964 59.0885 182.287 63.6689C176.579 68.275 172.685 74.4413 169.16 80.7385C165.67 86.973 162.499 93.4295 158.289 98.266C154.014 103.176 148.609 106.5 140.636 106.5V104.5ZM206.414 54C217.656 54 225.602 55.9592 231.678 58.9463C237.753 61.9327 241.886 65.9127 245.528 69.8179C249.2 73.7548 252.288 77.5064 256.401 80.332C260.455 83.1171 265.521 85 273.091 85V87C265.141 87 259.675 85.0079 255.268 81.9805C250.921 78.9936 247.622 74.9952 244.065 71.1821C240.48 67.3373 236.544 63.5673 230.796 60.7412C225.049 57.9158 217.417 56 206.414 56V54ZM273.091 85C289.199 85 295.849 95.6257 303.12 105.663C306.784 110.722 310.61 115.661 315.878 119.353C321.118 123.025 327.841 125.5 337.348 125.5V127.5C327.455 127.5 320.326 124.913 314.73 120.991C309.163 117.089 305.17 111.903 301.5 106.837C294.102 96.6243 288.023 87 273.091 87V85ZM337.348 125.5C356.113 125.5 366.479 110.313 376.265 94.4744C381.104 86.6409 385.802 78.6626 391.277 72.6693C396.777 66.6479 403.176 62.5 411.451 62.5V64.5C403.947 64.5 398.043 68.2271 392.753 74.0182C387.438 79.8374 382.857 87.6091 377.966 95.5256C368.29 111.187 357.383 127.5 337.348 127.5V125.5ZM411.451 62.5C418.929 62.5 424.1 58.8305 428.327 53.1382C432.596 47.3884 435.806 39.7081 439.37 31.8375C442.904 24.0333 446.774 16.0783 452.349 10.0845C457.968 4.04408 465.313 0 475.707 0V2C465.926 2 459.096 5.76842 453.814 11.4467C448.489 17.1717 444.734 24.8417 441.192 32.6625C437.68 40.4169 434.364 48.3616 429.932 54.3305C425.457 60.357 419.751 64.5 411.451 64.5V62.5ZM475.707 0C486.404 0 493.971 8.20465 499.81 19.8486C505.671 31.5356 509.993 47.0759 514.045 62.4959C518.111 77.9728 521.904 93.3211 526.707 104.818C529.107 110.564 531.728 115.266 534.702 118.519C537.661 121.754 540.913 123.5 544.628 123.5V125.5C540.195 125.5 536.444 123.387 533.226 119.868C530.025 116.367 527.297 111.421 524.861 105.589C519.991 93.9289 516.156 78.4022 512.11 63.0041C508.05 47.5491 503.774 32.2144 498.022 20.7452C492.249 9.23285 485.187 2 475.707 2V0ZM544.628 123.5C552.442 123.5 557.953 120.285 562.497 115.383C567.09 110.426 570.644 103.805 574.536 97.0033C578.396 90.2587 582.57 83.3752 588.366 78.1921C594.202 72.9735 601.655 69.5 612 69.5V71.5C602.17 71.5 595.186 74.7765 589.7 79.6829C584.173 84.6248 580.138 91.2413 576.272 97.9967C572.439 104.695 568.753 111.574 563.964 116.742C559.124 121.965 553.109 125.5 544.628 125.5V123.5Z" fill="#F227EA"/>
</svg>
