<svg width="41" height="34" viewBox="0 0 41 34" fill="none" xmlns="http://www.w3.org/2000/svg">
<path d="M35.8747 11.1217C36.7808 11.1217 37.6499 11.4147 38.2906 11.9361C38.9314 12.4575 39.2913 13.1648 39.2913 13.9022V19.4631C39.2913 20.2005 38.9314 20.9077 38.2906 21.4292C37.6499 21.9506 36.7808 22.2436 35.8747 22.2436H34.0604C33.6439 24.9313 32.0365 27.4029 29.5397 29.1947C27.043 30.9865 23.8286 31.9751 20.4997 31.9752V29.1947C23.2181 29.1947 25.8253 28.3159 27.7475 26.7516C29.6698 25.1873 30.7497 23.0656 30.7497 20.8533V12.5119C30.7497 10.2997 29.6698 8.17801 27.7475 6.6137C25.8253 5.04939 23.2181 4.17057 20.4997 4.17057C17.7812 4.17057 15.1741 5.04939 13.2518 6.6137C11.3296 8.17801 10.2497 10.2997 10.2497 12.5119V22.2436H5.12467C4.21852 22.2436 3.34948 21.9506 2.70873 21.4292C2.06798 20.9077 1.70801 20.2005 1.70801 19.4631V13.9022C1.70801 13.1648 2.06798 12.4575 2.70873 11.9361C3.34948 11.4147 4.21852 11.1217 5.12467 11.1217H6.93892C7.35581 8.43425 8.96344 5.96295 11.4602 4.1715C13.9569 2.38006 17.1711 1.3916 20.4997 1.3916C23.8283 1.3916 27.0425 2.38006 29.5392 4.1715C32.0359 5.96295 33.6435 8.43425 34.0604 11.1217H35.8747ZM13.2563 21.9447L15.0672 19.5868C16.6953 20.4168 18.5784 20.8559 20.4997 20.8533C22.4209 20.8559 24.304 20.4168 25.9322 19.5868L27.743 21.9447C25.5722 23.0515 23.0614 23.637 20.4997 23.6338C17.938 23.637 15.4272 23.0515 13.2563 21.9447Z" fill="black"/>
</svg>
