<svg width="41" height="34" viewBox="0 0 41 34" fill="none" xmlns="http://www.w3.org/2000/svg">
<path d="M35.8752 11.1217C36.7813 11.1217 37.6504 11.4147 38.2911 11.9361C38.9319 12.4575 39.2918 13.1648 39.2918 13.9022V19.4631C39.2918 20.2005 38.9319 20.9077 38.2911 21.4292C37.6504 21.9506 36.7813 22.2436 35.8752 22.2436H34.0609C33.6444 24.9313 32.037 27.4029 29.5402 29.1947C27.0435 30.9865 23.829 31.9751 20.5002 31.9752V29.1947C23.2186 29.1947 25.8258 28.3159 27.748 26.7516C29.6703 25.1873 30.7502 23.0656 30.7502 20.8533V12.5119C30.7502 10.2997 29.6703 8.17801 27.748 6.6137C25.8258 5.04939 23.2186 4.17057 20.5002 4.17057C17.7817 4.17057 15.1746 5.04939 13.2523 6.6137C11.3301 8.17801 10.2502 10.2997 10.2502 12.5119V22.2436H5.12516C4.21901 22.2436 3.34996 21.9506 2.70921 21.4292C2.06847 20.9077 1.7085 20.2005 1.7085 19.4631V13.9022C1.7085 13.1648 2.06847 12.4575 2.70921 11.9361C3.34996 11.4147 4.21901 11.1217 5.12516 11.1217H6.93941C7.3563 8.43425 8.96392 5.96295 11.4606 4.1715C13.9574 2.38006 17.1716 1.3916 20.5002 1.3916C23.8288 1.3916 27.043 2.38006 29.5397 4.1715C32.0364 5.96295 33.644 8.43425 34.0609 11.1217H35.8752ZM13.2568 21.9447L15.0677 19.5868C16.6958 20.4168 18.5789 20.8559 20.5002 20.8533C22.4214 20.8559 24.3045 20.4168 25.9327 19.5868L27.7435 21.9447C25.5726 23.0515 23.0619 23.637 20.5002 23.6338C17.9384 23.637 15.4277 23.0515 13.2568 21.9447Z" fill="black"/>
</svg>
