<svg width="19" height="22" viewBox="0 0 19 22" fill="none" xmlns="http://www.w3.org/2000/svg">
<path fill-rule="evenodd" clip-rule="evenodd" d="M0.644531 11C0.644531 16.799 4.60011 21.5 9.47956 21.5C14.359 21.5 18.3146 16.799 18.3146 11C18.3146 5.20101 14.359 0.5 9.47956 0.5C4.60011 0.5 0.644531 5.20101 0.644531 11ZM17.4677 11C17.4677 16.2467 13.8888 20.5 9.47407 20.5C5.05933 20.5 1.48047 16.2467 1.48047 11C1.48047 5.75329 5.05933 1.5 9.47407 1.5C13.8888 1.5 17.4677 5.75329 17.4677 11ZM5.86791 15.4199C5.68187 15.2544 5.64392 14.9411 5.78314 14.72C5.92236 14.4989 6.18602 14.4538 6.37205 14.6192C8.05586 16.1168 10.9564 16.1261 12.5915 14.624C12.7753 14.4551 13.0396 14.4953 13.1817 14.7138C13.3238 14.9322 13.29 15.2463 13.1061 15.4151C11.1689 17.1948 7.85165 17.1842 5.86791 15.4199ZM7.79619 9C7.79619 9.55228 7.41947 10 6.95476 10C6.49005 10 6.11333 9.55228 6.11333 9C6.11333 8.44772 6.49005 8 6.95476 8C7.41947 8 7.79619 8.44772 7.79619 9ZM12.8431 9C12.8431 9.55228 12.4664 10 12.0017 10C11.5369 10 11.1602 9.55228 11.1602 9C11.1602 8.44772 11.5369 8 12.0017 8C12.4664 8 12.8431 8.44772 12.8431 9Z" fill="#92929D"/>
</svg>
