<svg width="20" height="22" viewBox="0 0 20 22" fill="none" xmlns="http://www.w3.org/2000/svg">
<path fill-rule="evenodd" clip-rule="evenodd" d="M0.625 11C0.625 16.799 4.76624 21.5 9.87472 21.5C14.9832 21.5 19.1244 16.799 19.1244 11C19.1244 5.20101 14.9832 0.5 9.87472 0.5C4.76624 0.5 0.625 5.20101 0.625 11ZM18.2415 11C18.2415 16.2467 14.4947 20.5 9.8727 20.5C5.25074 20.5 1.50391 16.2467 1.50391 11C1.50391 5.75329 5.25074 1.5 9.8727 1.5C14.4947 1.5 18.2415 5.75329 18.2415 11ZM6.09455 15.4199C5.89979 15.2544 5.86005 14.9411 6.00581 14.72C6.15156 14.4989 6.4276 14.4538 6.62236 14.6192C8.3852 16.1168 11.4219 16.1261 13.1337 14.624C13.3262 14.4551 13.6028 14.4953 13.7516 14.7138C13.9004 14.9322 13.865 15.2463 13.6725 15.4151C11.6444 17.1948 8.1714 17.1842 6.09455 15.4199ZM8.11341 9C8.11341 9.55228 7.719 10 7.23248 10C6.74596 10 6.35156 9.55228 6.35156 9C6.35156 8.44772 6.74596 8 7.23248 8C7.719 8 8.11341 8.44772 8.11341 9ZM13.3986 9C13.3986 9.55228 13.0042 10 12.5176 10C12.0311 10 11.6367 9.55228 11.6367 9C11.6367 8.44772 12.0311 8 12.5176 8C13.0042 8 13.3986 8.44772 13.3986 9Z" fill="#92929D"/>
</svg>
