<svg width="123" height="30" viewBox="0 0 123 30" fill="none" xmlns="http://www.w3.org/2000/svg">
<mask id="path-1-inside-1_601_4477" fill="white">
<path fill-rule="evenodd" clip-rule="evenodd" d="M0.869408 19.4998C0.869408 19.4998 3.97865 17.4999 8.12421 27.4999C8.12421 27.4999 14.8607 35.7499 21.5972 20.4999C21.5972 20.4999 26.5201 11.4999 31.961 13.5C31.961 13.5 34.5521 16.5 43.3614 2.49987C43.3614 2.49987 52.6889 -7.25011 57.8708 21.4999C57.8708 21.4999 61.4981 31.7499 73.4166 17.4999C73.4166 17.4999 80.153 13.5 84.8168 18.4998C84.8168 18.4998 93.3671 31.4999 105.545 15.4999C105.545 15.4999 109.431 8.99993 122.127 8.49985"/>
</mask>
<path d="M8.12421 27.4999L6.27668 28.2658L6.38921 28.5372L6.57506 28.7648L8.12421 27.4999ZM21.5972 20.4999L19.8426 19.5402L19.802 19.6144L19.7678 19.6918L21.5972 20.4999ZM31.961 13.5L33.4747 12.1927L33.1366 11.8012L32.6511 11.6228L31.961 13.5ZM43.3614 2.49987L41.9162 1.11732L41.7764 1.2635L41.6686 1.43473L43.3614 2.49987ZM57.8708 21.4999L55.9025 21.8547L55.9313 22.0142L55.9854 22.1671L57.8708 21.4999ZM73.4166 17.4999L72.3955 15.7802L72.1017 15.9546L71.8825 16.2167L73.4166 17.4999ZM84.8168 18.4998L86.4878 17.4008L86.3948 17.2594L86.2794 17.1356L84.8168 18.4998ZM105.545 15.4999L107.136 16.7112L107.204 16.6222L107.261 16.5263L105.545 15.4999ZM0.869408 19.4998C1.95137 21.1819 1.94901 21.1834 1.94666 21.1849C1.94589 21.1854 1.94353 21.1869 1.94198 21.1879C1.93888 21.1899 1.9358 21.1918 1.93275 21.1937C1.92665 21.1976 1.92064 21.2013 1.91474 21.2049C1.90293 21.2121 1.89152 21.2189 1.88048 21.2253C1.85842 21.238 1.83779 21.2493 1.81853 21.2592C1.78009 21.2789 1.74656 21.2935 1.71753 21.3045C1.65885 21.3267 1.61778 21.3339 1.59474 21.3359C1.52144 21.3424 1.6309 21.3017 1.94017 21.4807C2.65316 21.8935 4.25255 23.3831 6.27668 28.2658L9.97175 26.734C7.85031 21.6166 5.82229 19.1062 3.94428 18.019C2.95804 17.448 2.0311 17.2823 1.24526 17.3512C0.865953 17.3845 0.549592 17.4699 0.304681 17.5623C0.182538 17.6084 0.0781523 17.6563 -0.00785434 17.7005C-0.0508974 17.7225 -0.0894904 17.7438 -0.123571 17.7635C-0.140618 17.7734 -0.156558 17.7829 -0.171384 17.7919C-0.178798 17.7965 -0.185936 17.8009 -0.192797 17.8052C-0.196228 17.8074 -0.19959 17.8095 -0.202883 17.8116C-0.204527 17.8126 -0.206953 17.8142 -0.207771 17.8147C-0.210171 17.8162 -0.212556 17.8178 0.869408 19.4998ZM8.12421 27.4999C6.57506 28.7648 6.57595 28.7659 6.57687 28.767C6.57721 28.7675 6.57816 28.7686 6.57884 28.7695C6.58021 28.7711 6.58169 28.7729 6.58328 28.7749C6.58647 28.7787 6.59009 28.7831 6.59415 28.7879C6.60228 28.7977 6.61216 28.8094 6.62379 28.823C6.64702 28.8501 6.67726 28.8848 6.71431 28.9261C6.7883 29.0083 6.89013 29.1173 7.01823 29.2444C7.27293 29.4971 7.63989 29.8298 8.10672 30.1689C9.02294 30.8343 10.4366 31.6051 12.2111 31.7148C16.0508 31.9523 19.9672 29.1396 23.4267 21.3081L19.7678 19.6918C16.4908 27.1102 13.6707 27.7975 12.458 27.7224C11.7063 27.676 11.0148 27.3373 10.4574 26.9325C10.1874 26.7364 9.97545 26.5437 9.83543 26.4048C9.76617 26.3361 9.7167 26.2827 9.68871 26.2516C9.67478 26.2361 9.66637 26.2263 9.6637 26.2232C9.66237 26.2216 9.6625 26.2218 9.66409 26.2237C9.66489 26.2246 9.66606 26.226 9.66761 26.2279C9.66838 26.2288 9.66924 26.2299 9.67021 26.2311C9.67068 26.2316 9.67148 26.2326 9.67172 26.2329C9.67253 26.2339 9.67337 26.2349 8.12421 27.4999ZM21.5972 20.4999C23.3519 21.4597 23.3517 21.4601 23.3514 21.4605C23.3514 21.4606 23.3512 21.461 23.3511 21.4612C23.3509 21.4616 23.3508 21.4618 23.3507 21.4619C23.3506 21.4621 23.3508 21.4618 23.3512 21.4609C23.3522 21.4592 23.3543 21.4555 23.3575 21.4497C23.364 21.4381 23.375 21.4185 23.3904 21.3915C23.4213 21.3375 23.4697 21.254 23.5346 21.1457C23.6647 20.9288 23.8597 20.6147 24.111 20.2412C24.6179 19.4875 25.3329 18.5233 26.1849 17.6315C28.0559 15.6731 29.8053 14.8384 31.271 15.3771L32.6511 11.6228C28.6758 10.1615 25.2433 12.8267 23.2927 14.8683C22.2339 15.9765 21.3781 17.1373 20.7919 18.0086C20.4967 18.4476 20.2646 18.821 20.1042 19.0885C20.0239 19.2224 19.9612 19.3303 19.9173 19.4071C19.8954 19.4456 19.8781 19.4763 19.8656 19.4986C19.8593 19.5098 19.8543 19.5189 19.8504 19.5259C19.8485 19.5293 19.8469 19.5323 19.8456 19.5347C19.8449 19.5358 19.8444 19.5369 19.8439 19.5378C19.8436 19.5383 19.8433 19.5389 19.8432 19.5391C19.8429 19.5396 19.8426 19.5402 21.5972 20.4999ZM31.961 13.5C30.4474 14.8072 30.45 14.8102 30.4526 14.8132C30.4535 14.8142 30.4561 14.8172 30.4578 14.8192C30.4614 14.8232 30.465 14.8273 30.4687 14.8315C30.4761 14.8398 30.4839 14.8483 30.4919 14.8571C30.508 14.8745 30.5253 14.8928 30.544 14.9118C30.5814 14.9497 30.6241 14.9905 30.6726 15.033C30.7694 15.118 30.8894 15.2105 31.0344 15.3005C31.3288 15.4833 31.7108 15.6465 32.1794 15.7235C33.1358 15.8806 34.2006 15.6437 35.3505 14.9862C37.5539 13.7263 40.6221 10.6087 45.0542 3.56501L41.6686 1.43473C37.2915 8.39114 34.6595 10.7736 33.365 11.5137C32.766 11.8562 32.6324 11.7443 32.8277 11.7764C32.9157 11.7909 33.0265 11.8291 33.1448 11.9025C33.2017 11.9379 33.2574 11.9795 33.312 12.0275C33.3393 12.0514 33.3665 12.0771 33.3935 12.1045C33.407 12.1182 33.4205 12.1324 33.434 12.1471C33.4408 12.1544 33.4475 12.1619 33.4543 12.1695C33.4577 12.1733 33.4611 12.1771 33.4645 12.181C33.4662 12.1829 33.4687 12.1858 33.4696 12.1868C33.4721 12.1897 33.4747 12.1927 31.961 13.5ZM43.3614 2.49987C44.8066 3.88242 44.8054 3.88362 44.8043 3.88479C44.804 3.88513 44.8029 3.88626 44.8023 3.88694C44.8009 3.88831 44.7997 3.88954 44.7987 3.89064C44.7966 3.89283 44.7949 3.89448 44.7938 3.89561C44.7916 3.89787 44.7914 3.89808 44.7931 3.8964C44.7965 3.89301 44.8076 3.8822 44.8258 3.86529C44.8627 3.83123 44.927 3.77399 45.0156 3.70366C45.1963 3.56031 45.4579 3.37829 45.7748 3.22409C46.4025 2.91871 47.1338 2.76668 47.9493 3.08316C48.8092 3.41685 50.1557 4.42202 51.6376 7.31423C53.1154 10.1984 54.6248 14.7658 55.9025 21.8547L59.8391 21.1451C58.5258 13.859 56.9261 8.86388 55.1975 5.49024C53.4731 2.12462 51.5161 0.176662 49.3964 -0.645903C47.2324 -1.48567 45.308 -0.997083 44.0248 -0.372783C43.3863 -0.0621407 42.8787 0.292946 42.529 0.570492C42.3525 0.710613 42.2114 0.834774 42.109 0.929499C42.0577 0.976977 42.0158 1.01741 41.9836 1.04916C41.9675 1.06505 41.9538 1.0788 41.9426 1.09022C41.9369 1.09593 41.9319 1.10105 41.9275 1.10558C41.9254 1.10784 41.9233 1.10995 41.9214 1.11191C41.9205 1.11289 41.9192 1.11424 41.9187 1.11473C41.9175 1.11604 41.9162 1.11732 43.3614 2.49987ZM57.8708 21.4999C55.9854 22.1671 55.9858 22.1685 55.9864 22.1699C55.9865 22.1705 55.9871 22.172 55.9875 22.173C55.9882 22.1752 55.989 22.1775 55.9899 22.1799C55.9917 22.1848 55.9937 22.1904 55.996 22.1966C56.0005 22.209 56.0061 22.2239 56.0127 22.2412C56.0259 22.2758 56.0433 22.3201 56.065 22.373C56.1085 22.4784 56.1698 22.619 56.2505 22.7854C56.4108 23.1158 56.654 23.5611 56.9952 24.0397C57.6648 24.979 58.8056 26.1751 60.5544 26.7452C64.2413 27.947 68.9327 25.9782 74.9507 18.783L71.8825 16.2167C65.9819 23.2715 62.9005 23.3028 61.7941 22.9421C61.1463 22.731 60.6353 22.2551 60.2523 21.7179C60.0672 21.4582 59.934 21.214 59.8494 21.0396C59.8076 20.9535 59.7794 20.8878 59.7638 20.8501C59.7561 20.8313 59.7516 20.8198 59.7504 20.8165C59.7498 20.8149 59.7499 20.8153 59.7509 20.818C59.7514 20.8193 59.7521 20.8212 59.753 20.8236C59.7534 20.8248 59.7539 20.8262 59.7544 20.8277C59.7547 20.8285 59.7551 20.8297 59.7553 20.8301C59.7557 20.8314 59.7562 20.8327 57.8708 21.4999ZM73.4166 17.4999C74.4377 19.2195 74.437 19.22 74.4363 19.2204C74.4362 19.2205 74.4355 19.2208 74.4351 19.2211C74.4344 19.2215 74.4337 19.2219 74.4332 19.2222C74.432 19.2229 74.4313 19.2233 74.431 19.2235C74.4303 19.2239 74.4311 19.2234 74.4335 19.2221C74.4382 19.2193 74.449 19.2132 74.4655 19.204C74.4986 19.1856 74.5546 19.1551 74.6312 19.1156C74.785 19.0364 75.0197 18.922 75.3188 18.796C75.923 18.5413 76.7565 18.2532 77.6942 18.0981C79.552 17.7908 81.6292 18.0147 83.3543 19.8641L86.2794 17.1356C83.3406 13.9851 79.7177 13.709 77.0414 14.1517C75.712 14.3716 74.5699 14.7709 73.7653 15.11C73.3599 15.2808 73.0319 15.4399 72.7991 15.5599C72.6824 15.62 72.5891 15.6706 72.5212 15.7083C72.4873 15.7272 72.4597 15.7429 72.4386 15.755C72.4281 15.7611 72.4192 15.7662 72.412 15.7704C72.4084 15.7725 72.4053 15.7744 72.4025 15.776C72.4011 15.7768 72.3998 15.7776 72.3987 15.7783C72.3981 15.7786 72.3973 15.7791 72.397 15.7793C72.3962 15.7797 72.3955 15.7802 73.4166 17.4999ZM84.8168 18.4998C83.1459 19.5989 83.1466 19.5999 83.1473 19.601C83.1476 19.6014 83.1483 19.6026 83.1489 19.6034C83.15 19.6052 83.1513 19.6071 83.1527 19.6092C83.1556 19.6135 83.1589 19.6186 83.1629 19.6244C83.1707 19.636 83.1807 19.6508 83.1928 19.6685C83.2172 19.7039 83.2501 19.7511 83.2915 19.8088C83.3744 19.9241 83.4916 20.0819 83.6421 20.2713C83.9421 20.649 84.3795 21.1589 84.9456 21.7119C86.0646 22.8048 87.7614 24.1389 89.9677 24.8925C92.2222 25.6626 94.9338 25.797 97.9275 24.569C100.875 23.3602 103.956 20.8897 107.136 16.7112L103.953 14.2886C101.045 18.1101 98.4905 20.0146 96.4095 20.8683C94.3751 21.7028 92.6658 21.5872 91.2606 21.1072C89.8072 20.6108 88.6053 19.6949 87.7405 18.8503C87.3149 18.4345 86.9891 18.0538 86.774 17.7831C86.6669 17.6483 86.5885 17.5423 86.5401 17.475C86.516 17.4414 86.4994 17.4176 86.4906 17.4048C86.4863 17.3984 86.4838 17.3947 86.4833 17.394C86.4831 17.3937 86.4833 17.394 86.4841 17.3952C86.4845 17.3957 86.485 17.3965 86.4856 17.3974C86.4859 17.3979 86.4865 17.3987 86.4866 17.399C86.4872 17.3999 86.4878 17.4008 84.8168 18.4998ZM105.545 15.4999C107.261 16.5263 107.26 16.5274 107.26 16.5286C107.26 16.5289 107.259 16.53 107.258 16.5307C107.258 16.5321 107.257 16.5334 107.256 16.5345C107.255 16.5369 107.254 16.5389 107.253 16.5405C107.251 16.5437 107.249 16.5454 107.249 16.5457C107.249 16.5462 107.252 16.5408 107.26 16.53C107.274 16.5084 107.303 16.4649 107.349 16.4024C107.441 16.2775 107.597 16.077 107.828 15.824C108.289 15.3185 109.047 14.6016 110.176 13.857C112.419 12.3778 116.208 10.7345 122.206 10.4983L122.048 6.5014C115.35 6.76525 110.848 8.62202 107.974 10.5178C106.544 11.4607 105.537 12.4001 104.872 13.129C104.54 13.4931 104.294 13.8043 104.124 14.0368C104.038 14.1531 103.972 14.2497 103.923 14.3236C103.899 14.3605 103.879 14.3917 103.863 14.4168C103.855 14.4294 103.848 14.4404 103.842 14.4499C103.839 14.4546 103.837 14.459 103.834 14.4629C103.833 14.4649 103.832 14.4668 103.831 14.4685C103.83 14.4694 103.83 14.4707 103.829 14.4711C103.829 14.4724 103.828 14.4736 105.545 15.4999Z" fill="#71D875" mask="url(#path-1-inside-1_601_4477)"/>
</svg>
