<svg width="20" height="20" viewBox="0 0 20 20" fill="none" xmlns="http://www.w3.org/2000/svg">
<path fill-rule="evenodd" clip-rule="evenodd" d="M19.1713 12.852V16.65C19.1713 18.5061 17.786 20 16.0881 20H14.5379H14.5343H3.75511C2.0572 20 0.671875 18.5061 0.671875 16.65V3.35C0.671875 1.49395 2.0572 0 3.75511 0H16.0881C17.786 0 19.1713 1.49395 19.1713 3.35V12.8483C19.1713 12.8495 19.1713 12.8508 19.1713 12.852ZM18.2893 13.0712L14.1371 8.77539L9.98437 13.0288L14.7307 19.0004H16.087C17.3082 19.0004 18.2893 17.9424 18.2893 16.6504V13.0712ZM18.2884 11.7178V3.35C18.2884 2.05803 17.3073 1 16.0861 1H3.75309C2.53188 1 1.55078 2.05803 1.55078 3.35V15.445L6.67209 9.646C6.85045 9.44404 7.14142 9.45273 7.31018 9.66506L9.3933 12.2859L13.8426 7.72878C14.0108 7.55643 14.2668 7.55716 14.4343 7.73045L18.2884 11.7178ZM13.5472 18.9994L6.97028 10.7246L1.5625 16.848C1.65694 18.048 2.59904 18.9994 3.75703 18.9994H13.5472ZM6.57002 6.69961C5.63197 6.69961 4.87109 5.83804 4.87109 4.77461C4.87109 3.71118 5.63197 2.84961 6.57002 2.84961C7.50806 2.84961 8.26895 3.71118 8.26895 4.77461C8.26895 5.83804 7.50806 6.69961 6.57002 6.69961ZM6.568 5.69961C7.02002 5.69961 7.386 5.28519 7.386 4.77461C7.386 4.26403 7.02002 3.84961 6.568 3.84961C6.11598 3.84961 5.75 4.26403 5.75 4.77461C5.75 5.28519 6.11598 5.69961 6.568 5.69961Z" fill="#92929D"/>
</svg>
