<svg width="20" height="20" viewBox="0 0 20 20" fill="none" xmlns="http://www.w3.org/2000/svg">
<path fill-rule="evenodd" clip-rule="evenodd" d="M6.49506 3.80078C6.44489 4.30611 6.01853 4.70078 5.5 4.70078C4.98147 4.70078 4.55511 4.30611 4.50494 3.80078H2V5.40078H18V3.80078H16.3951C16.3449 4.30611 15.9185 4.70078 15.4 4.70078C14.8815 4.70078 14.4551 4.30611 14.4049 3.80078H6.49506V3.80078ZM6.49609 3.80078H14.406H6.49609V3.80078ZM4.5 1.8V1C4.5 0.447715 4.94772 0 5.5 0C6.05228 0 6.5 0.447715 6.5 1V1.8H14.4V1C14.4 0.447715 14.8477 0 15.4 0C15.9523 0 16.4 0.447715 16.4 1V1.8H18.1C19.1493 1.8 20 2.65066 20 3.7V17C20 18.6569 18.6569 20 17 20H3C1.34315 20 0 18.6569 0 17V3.7C0 2.65066 0.850659 1.8 1.9 1.8H4.5ZM18 7.40039H2V17.0004C2 17.5527 2.44772 18.0004 3 18.0004H17C17.5523 18.0004 18 17.5527 18 17.0004V7.40039V7.40039ZM4.60156 11C4.04928 11 3.60156 10.5523 3.60156 10C3.60156 9.44772 4.04928 9 4.60156 9H8.20156C8.75385 9 9.20156 9.44772 9.20156 10C9.20156 10.5523 8.75385 11 8.20156 11H4.60156ZM4.60156 14.5996C4.04928 14.5996 3.60156 14.1519 3.60156 13.5996C3.60156 13.0473 4.04928 12.5996 4.60156 12.5996H11.8016C12.3538 12.5996 12.8016 13.0473 12.8016 13.5996C12.8016 14.1519 12.3538 14.5996 11.8016 14.5996H4.60156Z" fill="#92929D"/>
</svg>
