<svg width="18" height="22" viewBox="0 0 18 22" fill="none" xmlns="http://www.w3.org/2000/svg">
<path fill-rule="evenodd" clip-rule="evenodd" d="M0.144531 11C0.144531 16.799 4.10011 21.5 8.97956 21.5C13.859 21.5 17.8146 16.799 17.8146 11C17.8146 5.20101 13.859 0.5 8.97956 0.5C4.10011 0.5 0.144531 5.20101 0.144531 11ZM16.9677 11C16.9677 16.2467 13.3888 20.5 8.97407 20.5C4.55933 20.5 0.980472 16.2467 0.980472 11C0.980472 5.75329 4.55933 1.5 8.97407 1.5C13.3888 1.5 16.9677 5.75329 16.9677 11ZM5.36791 15.4199C5.18187 15.2544 5.14392 14.9411 5.28314 14.72C5.42236 14.4989 5.68602 14.4538 5.87205 14.6192C7.55586 16.1168 10.4564 16.1261 12.0915 14.624C12.2753 14.4551 12.5396 14.4953 12.6817 14.7138C12.8238 14.9322 12.79 15.2463 12.6061 15.4151C10.6689 17.1948 7.35165 17.1842 5.36791 15.4199ZM7.29619 9C7.29619 9.55228 6.91947 10 6.45476 10C5.99005 10 5.61333 9.55228 5.61333 9C5.61333 8.44772 5.99005 8 6.45476 8C6.91947 8 7.29619 8.44772 7.29619 9ZM12.3431 9C12.3431 9.55228 11.9664 10 11.5017 10C11.0369 10 10.6602 9.55228 10.6602 9C10.6602 8.44772 11.0369 8 11.5017 8C11.9664 8 12.3431 8.44772 12.3431 9Z" fill="#92929D"/>
</svg>
