<svg width="20" height="22" viewBox="0 0 20 22" fill="none" xmlns="http://www.w3.org/2000/svg">
<path fill-rule="evenodd" clip-rule="evenodd" d="M0.621094 11C0.621094 16.799 4.76233 21.5 9.87081 21.5C14.9793 21.5 19.1205 16.799 19.1205 11C19.1205 5.20101 14.9793 0.5 9.87081 0.5C4.76233 0.5 0.621094 5.20101 0.621094 11ZM18.2376 11C18.2376 16.2467 14.4908 20.5 9.86879 20.5C5.24684 20.5 1.5 16.2467 1.5 11C1.5 5.75329 5.24684 1.5 9.86879 1.5C14.4908 1.5 18.2376 5.75329 18.2376 11ZM6.09064 15.4199C5.89588 15.2544 5.85615 14.9411 6.0019 14.72C6.14765 14.4989 6.42369 14.4538 6.61845 14.6192C8.3813 16.1168 11.418 16.1261 13.1298 14.624C13.3223 14.4551 13.5989 14.4953 13.7477 14.7138C13.8965 14.9322 13.8611 15.2463 13.6686 15.4151C11.6405 17.1948 8.16749 17.1842 6.09064 15.4199ZM8.1095 9C8.1095 9.55228 7.7151 10 7.22858 10C6.74205 10 6.34765 9.55228 6.34765 9C6.34765 8.44772 6.74205 8 7.22858 8C7.7151 8 8.1095 8.44772 8.1095 9ZM13.3947 9C13.3947 9.55228 13.0002 10 12.5137 10C12.0272 10 11.6328 9.55228 11.6328 9C11.6328 8.44772 12.0272 8 12.5137 8C13.0002 8 13.3947 8.44772 13.3947 9Z" fill="#92929D"/>
</svg>
