<svg width="25" height="4" viewBox="0 0 25 4" fill="none" xmlns="http://www.w3.org/2000/svg">
<path fill-rule="evenodd" clip-rule="evenodd" d="M2.08114 0C3.14099 0 4.00017 0.895431 4.00017 2C4.00017 3.10457 3.14099 4 2.08114 4C1.02129 4 0.162109 3.10457 0.162109 2C0.162109 0.895431 1.02129 0 2.08114 0ZM12.6944 0C13.7543 0 14.6134 0.895431 14.6134 2C14.6134 3.10457 13.7543 4 12.6944 4C11.6346 4 10.7754 3.10457 10.7754 2C10.7754 0.895431 11.6346 0 12.6944 0ZM25.0002 2C25.0002 0.895431 24.141 0 23.0811 0C22.0213 0 21.1621 0.895431 21.1621 2C21.1621 3.10457 22.0213 4 23.0811 4C24.141 4 25.0002 3.10457 25.0002 2Z" fill="#92929D"/>
</svg>
