<svg width="26" height="4" viewBox="0 0 26 4" fill="none" xmlns="http://www.w3.org/2000/svg">
<path fill-rule="evenodd" clip-rule="evenodd" d="M2.57918 0C3.63903 0 4.49821 0.895431 4.49821 2C4.49821 3.10457 3.63903 4 2.57918 4C1.51933 4 0.660156 3.10457 0.660156 2C0.660156 0.895431 1.51933 0 2.57918 0ZM13.1925 0C14.2523 0 15.1115 0.895431 15.1115 2C15.1115 3.10457 14.2523 4 13.1925 4C12.1326 4 11.2734 3.10457 11.2734 2C11.2734 0.895431 12.1326 0 13.1925 0ZM25.4982 2C25.4982 0.895431 24.639 0 23.5792 0C22.5193 0 21.6602 0.895431 21.6602 2C21.6602 3.10457 22.5193 4 23.5792 4C24.639 4 25.4982 3.10457 25.4982 2Z" fill="#92929D"/>
</svg>
