<svg width="19" height="20" viewBox="0 0 19 20" fill="none" xmlns="http://www.w3.org/2000/svg">
<path fill-rule="evenodd" clip-rule="evenodd" d="M18.3029 12.852V16.65C18.3029 18.5061 16.9797 20 15.3579 20H13.8772H13.8738H3.57782C1.95603 20 0.632813 18.5061 0.632812 16.65V3.35C0.632812 1.49395 1.95603 0 3.57782 0H15.3579C16.9797 0 18.3029 1.49395 18.3029 3.35V12.8483C18.3029 12.8495 18.3029 12.8508 18.3029 12.852ZM17.4561 13.0712L13.49 8.77539L9.52347 13.0288L14.057 19.0004H15.3525C16.519 19.0004 17.4561 17.9424 17.4561 16.6504V13.0712ZM17.4559 11.7178V3.35C17.4559 2.05803 16.5188 1 15.3524 1H3.57233C2.40587 1 1.46875 2.05803 1.46875 3.35V15.445L6.36046 9.646C6.53082 9.44404 6.80875 9.45273 6.96995 9.66506L8.95967 12.2859L13.2095 7.72878C13.3702 7.55643 13.6147 7.55716 13.7747 7.73045L17.4559 11.7178ZM12.9318 18.9994L6.64972 10.7246L1.48438 16.848C1.57458 18.048 2.47444 18.9994 3.58052 18.9994H12.9318ZM6.2634 6.69961C5.36741 6.69961 4.64064 5.83804 4.64064 4.77461C4.64064 3.71118 5.36741 2.84961 6.2634 2.84961C7.15939 2.84961 7.88616 3.71118 7.88616 4.77461C7.88616 5.83804 7.15939 6.69961 6.2634 6.69961ZM6.26572 5.69961C6.69748 5.69961 7.04705 5.28519 7.04705 4.77461C7.04705 4.26403 6.69748 3.84961 6.26572 3.84961C5.83397 3.84961 5.48439 4.26403 5.48439 4.77461C5.48439 5.28519 5.83397 5.69961 6.26572 5.69961Z" fill="#92929D"/>
</svg>
