<svg width="123" height="30" viewBox="0 0 123 30" fill="none" xmlns="http://www.w3.org/2000/svg">
<mask id="path-1-inside-1_577_3674" fill="white">
<path fill-rule="evenodd" clip-rule="evenodd" d="M0.871361 19.4998C0.871361 19.4998 3.9806 17.4999 8.12617 27.4999C8.12617 27.4999 14.8627 35.7499 21.5992 20.4999C21.5992 20.4999 26.522 11.4999 31.963 13.5C31.963 13.5 34.5541 16.5 43.3634 2.49987C43.3634 2.49987 52.6908 -7.25011 57.8727 21.4999C57.8727 21.4999 61.5 31.7499 73.4185 17.4999C73.4185 17.4999 80.1549 13.5 84.8188 18.4998C84.8188 18.4998 93.369 31.4999 105.547 15.4999C105.547 15.4999 109.433 8.99993 122.129 8.49985"/>
</mask>
<path d="M8.12617 27.4999L6.27863 28.2658L6.39116 28.5372L6.57701 28.7648L8.12617 27.4999ZM21.5992 20.4999L19.8445 19.5402L19.8039 19.6144L19.7697 19.6918L21.5992 20.4999ZM31.963 13.5L33.4766 12.1927L33.1385 11.8012L32.653 11.6228L31.963 13.5ZM43.3634 2.49987L41.9182 1.11732L41.7783 1.2635L41.6706 1.43473L43.3634 2.49987ZM57.8727 21.4999L55.9044 21.8547L55.9332 22.0142L55.9873 22.1671L57.8727 21.4999ZM73.4185 17.4999L72.3974 15.7802L72.1036 15.9546L71.8844 16.2167L73.4185 17.4999ZM84.8188 18.4998L86.4898 17.4008L86.3968 17.2594L86.2813 17.1356L84.8188 18.4998ZM105.547 15.4999L107.138 16.7112L107.206 16.6222L107.263 16.5263L105.547 15.4999ZM0.871361 19.4998C1.95333 21.1819 1.95096 21.1834 1.94861 21.1849C1.94784 21.1854 1.94549 21.1869 1.94394 21.1879C1.94083 21.1899 1.93776 21.1918 1.9347 21.1937C1.9286 21.1976 1.9226 21.2013 1.91669 21.2049C1.90489 21.2121 1.89347 21.2189 1.88243 21.2253C1.86037 21.238 1.83974 21.2493 1.82048 21.2592C1.78205 21.2789 1.74851 21.2935 1.71948 21.3045C1.6608 21.3267 1.61974 21.3339 1.5967 21.3359C1.52339 21.3424 1.63285 21.3017 1.94212 21.4807C2.65512 21.8935 4.25451 23.3831 6.27863 28.2658L9.9737 26.734C7.85226 21.6166 5.82425 19.1062 3.94623 18.019C2.95999 17.448 2.03305 17.2823 1.24721 17.3512C0.867907 17.3845 0.551545 17.4699 0.306634 17.5623C0.184492 17.6084 0.0801054 17.6563 -0.00590122 17.7005C-0.0489442 17.7225 -0.0875373 17.7438 -0.121618 17.7635C-0.138665 17.7734 -0.154605 17.7829 -0.169431 17.7919C-0.176844 17.7965 -0.183983 17.8009 -0.190844 17.8052C-0.194275 17.8074 -0.197637 17.8095 -0.20093 17.8116C-0.202573 17.8126 -0.204999 17.8142 -0.205818 17.8147C-0.208218 17.8162 -0.210603 17.8178 0.871361 19.4998ZM8.12617 27.4999C6.57701 28.7648 6.5779 28.7659 6.57882 28.767C6.57916 28.7675 6.58011 28.7686 6.58079 28.7695C6.58216 28.7711 6.58365 28.7729 6.58524 28.7749C6.58842 28.7787 6.59204 28.7831 6.59611 28.7879C6.60423 28.7977 6.61412 28.8094 6.62574 28.823C6.64897 28.8501 6.67921 28.8848 6.71626 28.9261C6.79025 29.0083 6.89208 29.1173 7.02019 29.2444C7.27488 29.4971 7.64184 29.8298 8.10867 30.1689C9.02489 30.8343 10.4385 31.6051 12.213 31.7148C16.0527 31.9523 19.9692 29.1396 23.4287 21.3081L19.7697 19.6918C16.4927 27.1102 13.6726 27.7975 12.46 27.7224C11.7083 27.676 11.0167 27.3373 10.4593 26.9325C10.1894 26.7364 9.97741 26.5437 9.83738 26.4048C9.76813 26.3361 9.71865 26.2827 9.69067 26.2516C9.67673 26.2361 9.66833 26.2263 9.66566 26.2232C9.66433 26.2216 9.66445 26.2218 9.66605 26.2237C9.66685 26.2246 9.66802 26.226 9.66956 26.2279C9.67033 26.2288 9.6712 26.2299 9.67216 26.2311C9.67264 26.2316 9.67343 26.2326 9.67367 26.2329C9.67448 26.2339 9.67532 26.2349 8.12617 27.4999ZM21.5992 20.4999C23.3539 21.4597 23.3536 21.4601 23.3534 21.4605C23.3533 21.4606 23.3531 21.461 23.353 21.4612C23.3528 21.4616 23.3527 21.4618 23.3527 21.4619C23.3525 21.4621 23.3527 21.4618 23.3532 21.4609C23.3541 21.4592 23.3562 21.4555 23.3594 21.4497C23.3659 21.4381 23.3769 21.4185 23.3924 21.3915C23.4232 21.3375 23.4717 21.254 23.5366 21.1457C23.6666 20.9288 23.8616 20.6147 24.1129 20.2412C24.6198 19.4875 25.3348 18.5233 26.1868 17.6315C28.0579 15.6731 29.8072 14.8384 31.2729 15.3771L32.653 11.6228C28.6778 10.1615 25.2452 12.8267 23.2946 14.8683C22.2358 15.9765 21.38 17.1373 20.7939 18.0086C20.4986 18.4476 20.2665 18.821 20.1061 19.0885C20.0258 19.2224 19.9632 19.3303 19.9193 19.4071C19.8973 19.4456 19.88 19.4763 19.8675 19.4986C19.8613 19.5098 19.8562 19.5189 19.8524 19.5259C19.8505 19.5293 19.8489 19.5323 19.8475 19.5347C19.8469 19.5358 19.8463 19.5369 19.8458 19.5378C19.8456 19.5383 19.8452 19.5389 19.8451 19.5391C19.8448 19.5396 19.8445 19.5402 21.5992 20.4999ZM31.963 13.5C30.4494 14.8072 30.452 14.8102 30.4545 14.8132C30.4554 14.8142 30.458 14.8172 30.4598 14.8192C30.4634 14.8232 30.467 14.8273 30.4707 14.8315C30.4781 14.8398 30.4858 14.8483 30.4939 14.8571C30.5099 14.8745 30.5273 14.8928 30.546 14.9118C30.5833 14.9497 30.6261 14.9905 30.6745 15.033C30.7714 15.118 30.8914 15.2105 31.0364 15.3005C31.3307 15.4833 31.7127 15.6465 32.1814 15.7235C33.1378 15.8806 34.2025 15.6437 35.3524 14.9862C37.5558 13.7263 40.624 10.6087 45.0561 3.56501L41.6706 1.43473C37.2934 8.39114 34.6614 10.7736 33.367 11.5137C32.7679 11.8562 32.6343 11.7443 32.8296 11.7764C32.9177 11.7909 33.0284 11.8291 33.1467 11.9025C33.2036 11.9379 33.2594 11.9795 33.314 12.0275C33.3413 12.0514 33.3684 12.0771 33.3954 12.1045C33.4089 12.1182 33.4224 12.1324 33.436 12.1471C33.4427 12.1544 33.4495 12.1619 33.4563 12.1695C33.4596 12.1733 33.463 12.1771 33.4664 12.181C33.4681 12.1829 33.4707 12.1858 33.4715 12.1868C33.4741 12.1897 33.4766 12.1927 31.963 13.5ZM43.3634 2.49987C44.8085 3.88242 44.8074 3.88362 44.8063 3.88479C44.806 3.88513 44.8049 3.88626 44.8042 3.88694C44.8029 3.88831 44.8017 3.88954 44.8006 3.89064C44.7985 3.89283 44.7969 3.89448 44.7958 3.89561C44.7936 3.89787 44.7933 3.89808 44.795 3.8964C44.7985 3.89301 44.8095 3.8822 44.8278 3.86529C44.8646 3.83123 44.929 3.77399 45.0176 3.70366C45.1982 3.56031 45.4598 3.37829 45.7768 3.22409C46.4044 2.91871 47.1357 2.76668 47.9513 3.08316C48.8112 3.41685 50.1577 4.42202 51.6396 7.31423C53.1173 10.1984 54.6268 14.7658 55.9044 21.8547L59.841 21.1451C58.5278 13.859 56.928 8.86388 55.1995 5.49024C53.4751 2.12462 51.5181 0.176662 49.3984 -0.645903C47.2343 -1.48567 45.3099 -0.997083 44.0268 -0.372783C43.3883 -0.0621407 42.8807 0.292946 42.531 0.570492C42.3544 0.710613 42.2133 0.834774 42.111 0.929499C42.0597 0.976977 42.0177 1.01741 41.9855 1.04916C41.9694 1.06505 41.9557 1.0788 41.9445 1.09022C41.9389 1.09593 41.9339 1.10105 41.9295 1.10558C41.9273 1.10784 41.9253 1.10995 41.9234 1.11191C41.9224 1.11289 41.9211 1.11424 41.9207 1.11473C41.9194 1.11604 41.9182 1.11732 43.3634 2.49987ZM57.8727 21.4999C55.9873 22.1671 55.9878 22.1685 55.9883 22.1699C55.9885 22.1705 55.989 22.172 55.9894 22.173C55.9902 22.1752 55.991 22.1775 55.9919 22.1799C55.9937 22.1848 55.9957 22.1904 55.998 22.1966C56.0025 22.209 56.0081 22.2239 56.0147 22.2412C56.0279 22.2758 56.0452 22.3201 56.067 22.373C56.1104 22.4784 56.1717 22.619 56.2524 22.7854C56.4127 23.1158 56.656 23.5611 56.9972 24.0397C57.6667 24.979 58.8075 26.1751 60.5563 26.7452C64.2432 27.947 68.9347 25.9782 74.9527 18.783L71.8844 16.2167C65.9839 23.2715 62.9024 23.3028 61.796 22.9421C61.1482 22.731 60.6373 22.2551 60.2543 21.7179C60.0692 21.4582 59.936 21.214 59.8513 21.0396C59.8096 20.9535 59.7813 20.8878 59.7658 20.8501C59.758 20.8313 59.7536 20.8198 59.7523 20.8165C59.7517 20.8149 59.7519 20.8153 59.7529 20.818C59.7533 20.8193 59.754 20.8212 59.7549 20.8236C59.7554 20.8248 59.7558 20.8262 59.7564 20.8277C59.7567 20.8285 59.7571 20.8297 59.7572 20.8301C59.7577 20.8314 59.7582 20.8327 57.8727 21.4999ZM73.4185 17.4999C74.4397 19.2195 74.439 19.22 74.4383 19.2204C74.4381 19.2205 74.4375 19.2208 74.4371 19.2211C74.4363 19.2215 74.4357 19.2219 74.4351 19.2222C74.434 19.2229 74.4333 19.2233 74.4329 19.2235C74.4322 19.2239 74.4331 19.2234 74.4355 19.2221C74.4402 19.2193 74.451 19.2132 74.4675 19.204C74.5006 19.1856 74.5565 19.1551 74.6332 19.1156C74.787 19.0364 75.0217 18.922 75.3207 18.796C75.925 18.5413 76.7585 18.2532 77.6961 18.0981C79.554 17.7908 81.6312 18.0147 83.3563 19.8641L86.2813 17.1356C83.3425 13.9851 79.7196 13.709 77.0434 14.1517C75.7139 14.3716 74.5718 14.7709 73.7673 15.11C73.3619 15.2808 73.0339 15.4399 72.801 15.5599C72.6844 15.62 72.5911 15.6706 72.5232 15.7083C72.4892 15.7272 72.4616 15.7429 72.4406 15.755C72.4301 15.7611 72.4212 15.7662 72.414 15.7704C72.4104 15.7725 72.4072 15.7744 72.4044 15.776C72.4031 15.7768 72.4018 15.7776 72.4006 15.7783C72.4 15.7786 72.3992 15.7791 72.3989 15.7793C72.3982 15.7797 72.3974 15.7802 73.4185 17.4999ZM84.8188 18.4998C83.1478 19.5989 83.1485 19.5999 83.1492 19.601C83.1495 19.6014 83.1503 19.6026 83.1508 19.6034C83.152 19.6052 83.1533 19.6071 83.1547 19.6092C83.1575 19.6135 83.1609 19.6186 83.1648 19.6244C83.1726 19.636 83.1826 19.6508 83.1948 19.6685C83.2191 19.7039 83.2521 19.7511 83.2935 19.8088C83.3763 19.9241 83.4935 20.0819 83.644 20.2713C83.9441 20.649 84.3814 21.1589 84.9476 21.7119C86.0666 22.8048 87.7633 24.1389 89.9697 24.8925C92.2241 25.6626 94.9357 25.797 97.9294 24.569C100.876 23.3602 103.958 20.8897 107.138 16.7112L103.955 14.2886C101.047 18.1101 98.4925 20.0146 96.4114 20.8683C94.377 21.7028 92.6678 21.5872 91.2626 21.1072C89.8091 20.6108 88.6073 19.6949 87.7425 18.8503C87.3168 18.4345 86.991 18.0538 86.7759 17.7831C86.6688 17.6483 86.5905 17.5423 86.5421 17.475C86.518 17.4414 86.5014 17.4176 86.4926 17.4048C86.4882 17.3984 86.4858 17.3947 86.4853 17.394C86.485 17.3937 86.4853 17.394 86.486 17.3952C86.4864 17.3957 86.4869 17.3965 86.4875 17.3974C86.4878 17.3979 86.4884 17.3987 86.4886 17.399C86.4892 17.3999 86.4898 17.4008 84.8188 18.4998ZM105.547 15.4999C107.263 16.5263 107.262 16.5274 107.262 16.5286C107.262 16.5289 107.261 16.53 107.26 16.5307C107.26 16.5321 107.259 16.5334 107.258 16.5345C107.257 16.5369 107.255 16.5389 107.254 16.5405C107.253 16.5437 107.251 16.5454 107.251 16.5457C107.251 16.5462 107.254 16.5408 107.261 16.53C107.276 16.5084 107.305 16.4649 107.351 16.4024C107.443 16.2775 107.599 16.077 107.83 15.824C108.291 15.3185 109.049 14.6016 110.178 13.857C112.421 12.3778 116.21 10.7345 122.208 10.4983L122.05 6.5014C115.352 6.76525 110.85 8.62202 107.976 10.5178C106.546 11.4607 105.539 12.4001 104.874 13.129C104.542 13.4931 104.296 13.8043 104.126 14.0368C104.04 14.1531 103.974 14.2497 103.925 14.3236C103.901 14.3605 103.881 14.3917 103.865 14.4168C103.857 14.4294 103.85 14.4404 103.844 14.4499C103.841 14.4546 103.839 14.459 103.836 14.4629C103.835 14.4649 103.834 14.4668 103.833 14.4685C103.832 14.4694 103.832 14.4707 103.831 14.4711C103.831 14.4724 103.83 14.4736 105.547 15.4999Z" fill="#71D875" mask="url(#path-1-inside-1_577_3674)"/>
</svg>
