<svg width="32" height="36" viewBox="0 0 32 36" fill="none" xmlns="http://www.w3.org/2000/svg">
<g clip-path="url(#clip0_627_7619)">
<path d="M16.6499 14.8301L16.0018 15.4645L13.4871 17.9203L10.9725 20.374L13.4871 22.8305L16.0018 25.2857L18.5171 27.7401L19.86 29.0584H24.8872L23.5443 27.7435L21.0282 25.2891L18.5171 22.8305L16.0025 20.374L18.5171 17.9203L19.4833 16.9747L16.6499 14.8301ZM26.6152 9.99306L25.4526 11.1285H25.4674L24.8886 11.6938L23.5457 13.0086L23.263 13.2847L23.1217 13.4186L19.4819 16.9733L16.6548 14.8281L20.4289 11.1285L24.2023 7.4275L24.208 7.43164L26.03 5.65224L32.0049 9.02053V36H14.2229V32.5275H28.4436V11.0263L26.6145 9.99099L26.6152 9.99306ZM0 11.1285V36H10.6671V10.8476L7.11143 12.6104V32.5275H3.55571V11.0249L15.9996 4.00813L20.2296 6.39423L22.8284 3.84938L15.9996 0L7.99912 4.50923L0 9.01846V11.1285Z" fill="#565656"/>
</g>
<defs>
<clipPath id="clip0_627_7619">
<rect width="32" height="36" fill="white"/>
</clipPath>
</defs>
</svg>
