<svg width="580" height="187" viewBox="0 0 580 187" fill="none" xmlns="http://www.w3.org/2000/svg">
<path fill-rule="evenodd" clip-rule="evenodd" d="M564.953 149.744C574.782 167.516 584.512 188.582 575.309 185.741C568.614 183.673 559.544 178.863 550.602 174.121C547.955 172.717 545.319 171.319 542.759 170H11C5.47717 170 1 165.523 1 160V11C1 5.47716 5.47717 1 11 1H554.953C560.476 1 564.953 5.47716 564.953 11V149.744Z" fill="#BCBCBC"/>
<path d="M575.309 185.741L575.161 186.218H575.161L575.309 185.741ZM564.953 149.744H564.453V149.873L564.516 149.986L564.953 149.744ZM550.602 174.121L550.367 174.562L550.602 174.121ZM542.759 170L542.988 169.556L542.881 169.5H542.759V170ZM575.161 186.218C576.364 186.59 577.384 186.613 578.156 186.173C578.946 185.724 579.328 184.88 579.452 183.875C579.576 182.87 579.456 181.614 579.157 180.184C578.858 178.747 578.372 177.102 577.739 175.306C575.214 168.132 570.307 158.391 565.391 149.502L564.516 149.986C569.428 158.868 574.3 168.547 576.796 175.638C577.419 177.409 577.891 179.009 578.179 180.388C578.467 181.774 578.564 182.906 578.459 183.753C578.355 184.601 578.063 185.076 577.662 185.304C577.244 185.542 576.554 185.602 575.456 185.263L575.161 186.218ZM550.367 174.562C559.291 179.295 568.411 184.134 575.161 186.218L575.456 185.263C568.818 183.213 559.796 178.431 550.836 173.679L550.367 174.562ZM542.53 170.444C545.087 171.762 547.72 173.158 550.367 174.562L550.836 173.679C548.189 172.275 545.551 170.876 542.988 169.556L542.53 170.444ZM542.759 169.5H11V170.5H542.759V169.5ZM11 169.5C5.7533 169.5 1.5 165.247 1.5 160H0.5C0.5 165.799 5.20105 170.5 11 170.5V169.5ZM1.5 160V11H0.5V160H1.5ZM1.5 11C1.5 5.7533 5.7533 1.5 11 1.5V0.5C5.20105 0.5 0.5 5.20102 0.5 11H1.5ZM11 1.5H554.953V0.5H11V1.5ZM554.953 1.5C560.2 1.5 564.453 5.7533 564.453 11H565.453C565.453 5.20102 560.752 0.5 554.953 0.5V1.5ZM564.453 11V149.744H565.453V11H564.453Z" fill="#E1E1E1"/>
</svg>
