<svg width="520" height="187" viewBox="0 0 520 187" fill="none" xmlns="http://www.w3.org/2000/svg">
<path fill-rule="evenodd" clip-rule="evenodd" d="M13.5898 37.2584C4.78106 19.4861 -3.94002 -1.58262 4.30821 1.25937C10.3076 3.32651 18.4364 8.13687 26.4504 12.8794C28.8226 14.2832 31.1847 15.681 33.4786 17H508.999C514.522 17 518.999 21.4772 518.999 27V176C518.999 181.523 514.522 186 508.999 186H23.5898C18.067 186 13.5898 181.523 13.5898 176V37.2584Z" fill="#F9F9F9"/>
<path d="M4.30821 1.25937L4.47109 0.786641L4.30821 1.25937ZM13.5898 37.2584H14.0898V37.1413L14.0378 37.0364L13.5898 37.2584ZM26.4504 12.8794L26.1957 13.3097L26.4504 12.8794ZM33.4786 17L33.2294 17.4335L33.3451 17.5H33.4786V17ZM4.47109 0.786641C3.38211 0.411425 2.43266 0.380146 1.7096 0.839177C0.98691 1.29797 0.652041 2.14404 0.543027 3.13114C0.325575 5.10012 0.951191 8.11396 2.07581 11.6789C4.33846 18.8514 8.73564 28.5906 13.1419 37.4804L14.0378 37.0364C9.63527 28.1539 5.26752 18.4726 3.02948 11.3781C1.90376 7.80962 1.3451 4.97838 1.53698 3.24091C1.63264 2.37478 1.90084 1.90227 2.24557 1.68342C2.58993 1.4648 3.17225 1.39681 4.14533 1.73209L4.47109 0.786641ZM26.705 12.4491C18.7106 7.71817 10.5303 2.87437 4.47109 0.786641L4.14533 1.73209C10.085 3.77865 18.1621 8.55556 26.1957 13.3097L26.705 12.4491ZM33.7278 16.5665C31.4371 15.2494 29.0777 13.8532 26.705 12.4491L26.1957 13.3097C28.5674 14.7131 30.9323 16.1126 33.2294 17.4335L33.7278 16.5665ZM33.4786 17.5H508.999V16.5H33.4786V17.5ZM508.999 17.5C514.246 17.5 518.499 21.7533 518.499 27H519.499C519.499 21.201 514.798 16.5 508.999 16.5V17.5ZM518.499 27V176H519.499V27H518.499ZM518.499 176C518.499 181.247 514.246 185.5 508.999 185.5V186.5C514.798 186.5 519.499 181.799 519.499 176H518.499ZM508.999 185.5H23.5898V186.5H508.999V185.5ZM23.5898 185.5C18.3431 185.5 14.0898 181.247 14.0898 176H13.0898C13.0898 181.799 17.7909 186.5 23.5898 186.5V185.5ZM14.0898 176V37.2584H13.0898V176H14.0898Z" fill="#D7D7D7"/>
</svg>
