<svg width="115" height="50" viewBox="0 0 115 50" fill="none" xmlns="http://www.w3.org/2000/svg">
<path d="M1.11332 39.9983C0.937131 40.0006 0.765734 40.0005 0.599609 39.9983H1.11332C6.59361 39.9271 16.7121 37.594 17.0996 28.5652C17.5996 16.9164 35.0996 21.6622 36.5996 28.5652C38.0996 35.4682 55.0996 25.7609 56.5996 19.9365C58.0996 14.1122 73.5996 6.77773 77.5996 11.5235C81.5996 16.2693 97.5996 11.3079 97.5996 19.9365C97.5996 26.8395 106.933 32.1606 111.6 33.9582L114.6 35.4682V39.9983H1.11332Z" fill="url(#paint0_linear_577_8252)"/>
<path d="M0.599609 39.9983C5.93294 40.0702 16.6996 37.8843 17.0996 28.5652C17.5996 16.9164 35.0996 21.6622 36.5996 28.5652C38.0996 35.4682 55.0996 25.7609 56.5996 19.9365C58.0996 14.1122 73.5996 6.77773 77.5996 11.5235C81.5996 16.2693 97.5996 11.3079 97.5996 19.9365C97.5996 26.8395 106.933 32.1606 111.6 33.9582L114.6 35.4682" stroke="#6BE886"/>
<defs>
<linearGradient id="paint0_linear_577_8252" x1="57.5996" y1="10" x2="57.5996" y2="46.2407" gradientUnits="userSpaceOnUse">
<stop stop-color="#6BE886"/>
<stop offset="1" stop-color="#EDFFF1" stop-opacity="0"/>
</linearGradient>
</defs>
</svg>
