<svg width="115" height="50" viewBox="0 0 115 50" fill="none" xmlns="http://www.w3.org/2000/svg">
<path d="M1.11527 39.9983C0.939084 40.0006 0.767687 40.0005 0.601562 39.9983H1.11527C6.59557 39.9271 16.714 37.594 17.1016 28.5652C17.6016 16.9164 35.1016 21.6622 36.6016 28.5652C38.1016 35.4682 55.1016 25.7609 56.6016 19.9365C58.1016 14.1122 73.6016 6.77773 77.6016 11.5235C81.6016 16.2693 97.6016 11.3079 97.6016 19.9365C97.6016 26.8395 106.935 32.1606 111.602 33.9582L114.602 35.4682V39.9983H1.11527Z" fill="url(#paint0_linear_628_7016)"/>
<path d="M0.601562 39.9983C5.9349 40.0702 16.7016 37.8843 17.1016 28.5652C17.6016 16.9164 35.1016 21.6622 36.6016 28.5652C38.1016 35.4682 55.1016 25.7609 56.6016 19.9365C58.1016 14.1122 73.6016 6.77773 77.6016 11.5235C81.6016 16.2693 97.6016 11.3079 97.6016 19.9365C97.6016 26.8395 106.935 32.1606 111.602 33.9582L114.602 35.4682" stroke="#6BE886"/>
<defs>
<linearGradient id="paint0_linear_628_7016" x1="57.6016" y1="10" x2="57.6016" y2="46.2407" gradientUnits="userSpaceOnUse">
<stop stop-color="#6BE886"/>
<stop offset="1" stop-color="#EDFFF1" stop-opacity="0"/>
</linearGradient>
</defs>
</svg>
