<svg width="20" height="22" viewBox="0 0 20 22" fill="none" xmlns="http://www.w3.org/2000/svg">
<path fill-rule="evenodd" clip-rule="evenodd" d="M4.59703 0.046875H15.4643C17.9265 0.046875 19.9226 1.75246 19.9226 3.8564V19.2112C19.9226 20.2631 18.9246 21.1159 17.6934 21.1159C17.1872 21.1159 16.6961 20.9687 16.3008 20.6985L10.0306 16.4118L3.76052 20.6985C2.79921 21.3557 1.39639 21.2226 0.627243 20.4012C0.310978 20.0634 0.138672 19.6437 0.138672 19.2112V3.8564C0.138672 1.75246 2.13475 0.046875 4.59703 0.046875ZM4.60222 1.95117C3.37108 1.95117 2.37305 2.80396 2.37305 3.85593V19.2107L8.64318 14.924C9.45736 14.3674 10.6143 14.3674 11.4285 14.924L17.6986 19.2107V3.85593C17.6986 2.80396 16.7006 1.95117 15.4695 1.95117H4.60222Z" fill="#92929D"/>
</svg>
