<svg width="426" height="445" viewBox="0 0 426 445" fill="none" xmlns="http://www.w3.org/2000/svg">
<path opacity="0.67" fill-rule="evenodd" clip-rule="evenodd" d="M217.325 0.249591C257.321 0.979986 296.84 9.2846 331.085 29.9549C365.954 51.0018 396.228 80.4895 412.271 117.919C428.124 154.904 429.011 196.901 419.388 235.972C410.305 272.851 385.179 302.086 359.925 330.46C334.976 358.49 307.133 382.08 273.871 399.459C234.093 420.243 191.337 454.631 148.617 440.866C105.771 427.059 96.8337 370.598 70.6618 333.98C47.4225 301.465 11.8087 276.745 3.39352 237.677C-5.25388 197.532 7.15222 156.112 24.3118 118.802C41.4401 81.5596 65.9277 47.2078 100.862 25.7506C135.423 4.52245 176.769 -0.491034 217.325 0.249591Z" fill="#222222"/>
</svg>
