<svg width="611" height="176" viewBox="0 0 611 176" fill="none" xmlns="http://www.w3.org/2000/svg">
<path d="M67.7867 67.2223C36.5633 67.2223 21.6051 15.0892 0 15.0892V176H611V0C570.944 0 577.11 40.3547 544.757 40.3547C512.403 40.3547 515.882 0 475.826 0C435.77 0 438.05 134.752 406.724 134.752C375.398 134.752 378.48 50.7554 339.964 50.7554C301.448 50.7554 302.475 83.6217 271.663 83.6217C240.85 83.6217 248.553 22.4655 204.389 22.4655C160.224 22.4655 167.414 110.691 137.115 110.691C106.816 110.691 106.816 67.2223 67.7867 67.2223Z" fill="url(#paint0_linear_577_9565)"/>
<defs>
<linearGradient id="paint0_linear_577_9565" x1="305.5" y1="0" x2="305.5" y2="176" gradientUnits="userSpaceOnUse">
<stop offset="0.414583" stop-color="#3A6FF8" stop-opacity="0.09"/>
<stop offset="1" stop-color="white" stop-opacity="0"/>
</linearGradient>
</defs>
</svg>
