<svg width="426" height="445" viewBox="0 0 426 445" fill="none" xmlns="http://www.w3.org/2000/svg">
<path opacity="0.67" fill-rule="evenodd" clip-rule="evenodd" d="M217.327 0.250568C257.323 0.980962 296.842 9.28558 331.087 29.9559C365.956 51.0028 396.23 80.4905 412.273 117.92C428.125 154.905 429.013 196.902 419.39 235.972C410.307 272.852 385.181 302.087 359.927 330.461C334.978 358.491 307.135 382.081 273.873 399.46C234.095 420.244 191.339 454.632 148.619 440.867C105.773 427.06 96.8357 370.599 70.6638 333.981C47.4245 301.466 11.8107 276.746 3.39547 237.678C-5.25192 197.533 7.15417 156.113 24.3138 118.803C41.442 81.5605 65.9297 47.2088 100.864 25.7516C135.425 4.52342 176.771 -0.490058 217.327 0.250568Z" fill="#222222"/>
</svg>
