<svg width="464" height="389" viewBox="0 0 464 389" fill="none" xmlns="http://www.w3.org/2000/svg">
<path opacity="0.2" fill-rule="evenodd" clip-rule="evenodd" d="M240.703 30.5799C286.655 18.9483 337.834 -16.1647 377.791 9.32435C417.312 34.5356 400.504 96.7374 414.511 141.455C428.29 185.447 478.959 227.213 459.064 268.801C438.512 311.763 371.033 296.806 329.246 319.69C295.658 338.083 278.96 386.549 240.703 388.381C202.385 390.215 178.785 348.005 145.773 328.475C107.727 305.968 56.9353 302.433 32.8181 265.399C6.13518 224.427 -11.8818 166.18 12.4695 123.782C37.1274 80.8492 100.376 86.6633 146.228 67.9391C178.366 54.8153 207.049 39.0987 240.703 30.5799Z" fill="#222222"/>
</svg>
