<svg width="15" height="12" viewBox="0 0 15 12" fill="none" xmlns="http://www.w3.org/2000/svg">
<path opacity="0.5" d="M0 3.58033V3.14038C0 2.7759 0.314795 2.48045 0.703125 2.48045H11.25V1.16059C11.25 0.573058 12.0088 0.279527 12.4503 0.693935L14.7941 2.8937C15.0686 3.15143 15.0686 3.56928 14.7941 3.82698L12.4503 6.02675C12.0104 6.43953 11.25 6.1501 11.25 5.56012V4.24026H0.703125C0.314795 4.24026 0 3.9448 0 3.58033ZM14.2969 7.75989H3.75V6.44003C3.75 5.85396 2.99232 5.55792 2.54968 5.97337L0.205928 8.17314C-0.0686426 8.43087 -0.0686426 8.84872 0.205928 9.10642L2.54968 11.3062C2.98995 11.7194 3.75 11.429 3.75 10.8396V9.5197H14.2969C14.6852 9.5197 15 9.22424 15 8.85977V8.41982C15 8.05534 14.6852 7.75989 14.2969 7.75989Z" fill="black"/>
</svg>
