<svg width="464" height="389" viewBox="0 0 464 389" fill="none" xmlns="http://www.w3.org/2000/svg">
<path opacity="0.2" fill-rule="evenodd" clip-rule="evenodd" d="M240.703 30.5789C286.655 18.9474 337.834 -16.1656 377.791 9.32337C417.312 34.5346 400.504 96.7364 414.511 141.454C428.29 185.446 478.959 227.212 459.064 268.8C438.512 311.762 371.033 296.805 329.246 319.689C295.658 338.082 278.96 386.548 240.703 388.38C202.385 390.215 178.785 348.004 145.773 328.474C107.727 305.967 56.9353 302.432 32.8181 265.398C6.13518 224.426 -11.8818 166.179 12.4695 123.781C37.1274 80.8482 100.376 86.6623 146.228 67.9381C178.366 54.8143 207.049 39.0977 240.703 30.5789Z" fill="#222222"/>
</svg>
