<svg width="423" height="483" viewBox="0 0 423 483" fill="none" xmlns="http://www.w3.org/2000/svg">
<path opacity="0.1" fill-rule="evenodd" clip-rule="evenodd" d="M220.438 2.42552C253.804 -2.47878 294.982 0.17135 317.959 24.8569C343.61 52.4156 322.062 102.315 342.715 133.794C359.18 158.889 406.773 152.001 419.278 179.286C431.277 205.47 411.222 235.71 401.912 262.966C393.816 286.667 382.549 308.689 368.091 329.14C354.388 348.525 332.073 359.918 319.25 379.896C298.881 411.632 306.393 468.341 270.783 480.749C237.722 492.268 214.579 438.873 181.314 427.957C152.382 418.463 116.516 438.689 91.1737 421.809C66.0319 405.064 66.7595 367.499 51.4473 341.459C36.0088 315.205 1.63068 297.466 0.166662 267.044C-1.31789 236.195 33.8941 215.749 43.9931 186.562C53.8659 158.029 41.7177 123.205 58.5989 98.1723C75.4263 73.2195 108.994 67.089 134.897 51.7644C163.54 34.8187 187.511 7.26526 220.438 2.42552Z" fill="#222222"/>
</svg>
